<?xml version="1.0" encoding="UTF-8" standalone="no"?>
<!-- Created with Inkscape (http://www.inkscape.org/) -->

<svg
   xmlns:dc="http://purl.org/dc/elements/1.1/"
   xmlns:cc="http://creativecommons.org/ns#"
   xmlns:rdf="http://www.w3.org/1999/02/22-rdf-syntax-ns#"
   xmlns:svg="http://www.w3.org/2000/svg"
   xmlns="http://www.w3.org/2000/svg"
   xmlns:sodipodi="http://sodipodi.sourceforge.net/DTD/sodipodi-0.dtd"
   xmlns:inkscape="http://www.inkscape.org/namespaces/inkscape"
   width="310"
   height="230"
   id="svg3193"
   version="1.1"
   inkscape:version="0.48.4 r9939"
   sodipodi:docname="fishbird.svg"
   inkscape:export-filename="D:\Dropbox\experiments\fishbird.png"
   inkscape:export-xdpi="600"
   inkscape:export-ydpi="600">
  <title
     id="title3288">Le FishBird</title>
  <defs
     id="defs3195" />
  <sodipodi:namedview
     id="base"
     pagecolor="#ffffff"
     bordercolor="#666666"
     borderopacity="1.0"
     inkscape:pageopacity="0.0"
     inkscape:pageshadow="2"
     inkscape:zoom="1.4"
     inkscape:cx="257.50428"
     inkscape:cy="928.5569"
     inkscape:document-units="px"
     inkscape:current-layer="layer1"
     showgrid="false"
     inkscape:snap-page="true"
     inkscape:snap-bbox="true"
     inkscape:bbox-nodes="true"
     inkscape:bbox-paths="true"
     inkscape:snap-bbox-edge-midpoints="true"
     inkscape:snap-bbox-midpoints="true"
     inkscape:snap-center="true"
     inkscape:snap-object-midpoints="true"
     inkscape:window-width="1680"
     inkscape:window-height="998"
     inkscape:window-x="-8"
     inkscape:window-y="-8"
     inkscape:window-maximized="1" />
  <metadata
     id="metadata3198">
    <rdf:RDF>
      <cc:Work
         rdf:about="">
        <dc:format>image/svg+xml</dc:format>
        <dc:type
           rdf:resource="http://purl.org/dc/dcmitype/StillImage" />
        <dc:title>Le FishBird</dc:title>
        <dc:date>2014</dc:date>
        <dc:creator>
          <cc:Agent>
            <dc:title>Jonas Kubilius</dc:title>
          </cc:Agent>
        </dc:creator>
        <dc:rights>
          <cc:Agent>
            <dc:title>CC BY 4.0</dc:title>
          </cc:Agent>
        </dc:rights>
        <dc:subject>
          <rdf:Bag>
            <rdf:li>Bistable</rdf:li>
            <rdf:li>Figure-ground</rdf:li>
            <rdf:li>Escher</rdf:li>
          </rdf:Bag>
        </dc:subject>
        <cc:license
           rdf:resource="http://creativecommons.org/licenses/by/4.0/" />
        <dc:description>This is an example how, depending on the context (i.e., background color), boundaries of objects can be grouped in two different ways (either a fish or a bird). Look closely -- the birds are still there in the water, and the fish are also in the sky, but you don't see it like that, at least not without putting effort. How the visual cortex deals with this bistable figure-ground relationship has been a topic of interest to many vision researchers and most famously was celebrated by M.C. Escher</dc:description>
      </cc:Work>
      <cc:License
         rdf:about="http://creativecommons.org/licenses/by/3.0/">
        <cc:permits
           rdf:resource="http://creativecommons.org/ns#Reproduction" />
        <cc:permits
           rdf:resource="http://creativecommons.org/ns#Distribution" />
        <cc:requires
           rdf:resource="http://creativecommons.org/ns#Notice" />
        <cc:requires
           rdf:resource="http://creativecommons.org/ns#Attribution" />
        <cc:permits
           rdf:resource="http://creativecommons.org/ns#DerivativeWorks" />
      </cc:License>
    </rdf:RDF>
  </metadata>
  <g
     inkscape:label="Layer 1"
     inkscape:groupmode="layer"
     id="layer1"
     transform="translate(0,-822.36218)">
    <g
       id="g3348">
      <rect
         style="fill:#ffffff;fill-opacity:1;stroke:none"
         id="rect5634-1"
         width="310"
         height="116.28182"
         x="-1.7033154e-006"
         y="-2.5636444" />
      <rect
         style="fill:#000000;fill-opacity:1;stroke:none"
         id="rect5634"
         width="310"
         height="116.28182"
         x="-1.7033154e-006"
         y="113.71818" />
      <path
         style="fill:#000000;fill-opacity:1;stroke:none"
         d="m 128.28853,162.61617 c 0.8896,-0.0765 5.3081,-0.22576 9.38392,-0.23125 3.17013,-0.004 6.1342,0.0816 7.06766,0.35677 -0.8707,1.84645 -3.18366,2.79328 -3.41173,3.71969 3.00322,1.04319 7.34569,3.07011 12.92105,1.8896 5.57539,-1.1806 7.20623,-2.04155 7.20623,-2.04155 0,0 -1.43153,-1.43061 8.86921,-6.58711 2.78442,-1.3938 4.86928,-1.9229 7.72757,-2.32564 0.5455,-0.0768 -3.25413,-4.02329 -2.71224,-4.06986 -2.13366,0.62895 -14.87008,0.25474 -16.45159,0.11894 -0.54188,-0.0466 3.25775,-3.99305 2.71225,-4.06986 -2.85831,-0.40274 -4.94319,-0.9252 -7.72757,-2.31904 -9.59258,-4.80198 -9.00778,-6.3732 -8.88241,-6.56728 -0.0496,0.0777 -5.08476,7.96321 -4.97573,9.2629 -0.10958,1.30612 4.98893,9.29595 4.98893,9.29595 0,0 -1.63088,-0.86757 -7.20624,-2.04816 -5.57535,-1.1805 -9.91784,0.85302 -12.92106,1.89619 0.22811,0.92643 2.54105,1.87322 3.41175,3.71971 z"
         id="rect5362"
         inkscape:connector-curvature="0" />
      <path
         inkscape:connector-curvature="0"
         style="fill:#ffffff;stroke:none"
         d="m 121.22087,136.53866 c -4.07587,0.006 -8.49434,0.15482 -9.38394,0.23125 -0.54189,0.0465 3.25774,3.99302 2.71225,4.06987 -2.8583,0.40271 -4.9432,0.9318 -7.72758,2.32563 -10.300762,5.15649 -8.869208,6.58709 -8.869208,6.58709 0,0 -1.431554,1.43723 8.869208,6.59371 2.78438,1.39384 4.86928,1.91631 7.72758,2.31902 0.54549,0.0768 -3.25414,4.02333 -2.71225,4.06986 1.58151,0.13584 14.31792,0.51004 16.45158,-0.1189 -0.8707,-1.84647 -3.18362,-2.79328 -3.41173,-3.71971 3.00322,-1.04317 7.34571,-3.07673 12.92106,-1.89619 5.57536,1.18055 7.20624,2.04816 7.20624,2.04816 0,0 -5.09851,-7.98983 -4.98893,-9.29595 -0.10958,-1.30612 4.98893,-9.28933 4.98893,-9.28933 0,0 -1.63088,0.861 -7.20624,2.04155 -5.57535,1.18054 -9.91784,-0.84642 -12.92106,-1.8896 0.22811,-0.92643 2.54103,-1.87324 3.41173,-3.71969 -0.93346,-0.27516 -3.89753,-0.3611 -7.06764,-0.35677 z"
         id="path4608-0-8-2-4-0-8-4-1-8" />
      <path
         inkscape:connector-curvature="0"
         style="fill:#ffffff;stroke:none"
         d="m 168.27255,127.24933 c -4.07586,0.005 -8.49433,0.15482 -9.38394,0.23125 -0.54188,0.0465 3.25775,3.99301 2.71225,4.06987 -2.85829,0.40271 -4.94319,0.93179 -7.72757,2.32563 -10.30077,5.15649 -8.86921,6.58709 -8.86921,6.58709 0,0 -1.43156,1.43722 8.86921,6.59371 2.78438,1.39384 4.86928,1.9163 7.72757,2.31902 0.5455,0.0769 -3.25413,4.02333 -2.71225,4.06986 1.58151,0.13584 14.31793,0.51004 16.45159,-0.1189 -0.87071,-1.84647 -3.18363,-2.79328 -3.41174,-3.71971 3.00322,-1.04317 7.34572,-3.07673 12.92107,-1.8962 5.57535,1.18056 7.20623,2.04817 7.20623,2.04817 0,0 -5.0985,-7.98983 -4.98893,-9.29595 -0.10957,-1.30612 4.98893,-9.28933 4.98893,-9.28933 0,0 -1.63088,0.86099 -7.20623,2.04155 -5.57535,1.18054 -9.91785,-0.84643 -12.92107,-1.8896 0.22811,-0.92643 2.54103,-1.87324 3.41174,-3.71969 -0.93347,-0.27516 -3.89754,-0.3611 -7.06765,-0.35677 z"
         id="path4608-0-8-2-4-0-8-4-1-0-3" />
      <path
         inkscape:connector-curvature="0"
         style="fill:#ffffff;stroke:none"
         d="m 104.76927,110.69238 c -4.07587,0.005 -8.494341,0.15483 -9.383944,0.23126 -0.541888,0.0465 3.257745,3.99301 2.712247,4.06986 -2.858293,0.40272 -4.943191,0.9318 -7.727574,2.32564 -10.300763,5.15648 -8.86921,6.58709 -8.86921,6.58709 0,0 -1.431553,1.43722 8.86921,6.5937 2.784383,1.39384 4.869281,1.91631 7.727574,2.31902 0.545498,0.0769 -3.254135,4.02333 -2.712247,4.06987 1.581507,0.13584 14.317924,0.51003 16.451584,-0.11891 -0.87071,-1.84647 -3.18363,-2.79328 -3.41173,-3.7197 3.00322,-1.04318 7.34571,-3.07674 12.92106,-1.8962 5.57536,1.18056 7.20623,2.04817 7.20623,2.04817 0,0 -5.0985,-7.98983 -4.98893,-9.29595 -0.10957,-1.30612 4.98893,-9.28933 4.98893,-9.28933 0,0 -1.63087,0.86099 -7.20623,2.04154 -5.57535,1.18054 -9.91784,-0.84642 -12.92106,-1.8896 0.2281,-0.92642 2.54102,-1.87323 3.41173,-3.71968 -0.93347,-0.27517 -3.89753,-0.36111 -7.06764,-0.35678 z"
         id="path4608-0-8-2-4-0-8-4-1-96-8" />
      <path
         style="fill:#000000;fill-opacity:1;stroke:none"
         d="m 111.83693,136.76991 c 0.8896,-0.0765 5.30809,-0.22575 9.38392,-0.23125 3.17013,-0.004 6.1342,0.0816 7.06766,0.35677 -0.8707,1.84645 -3.18367,2.79328 -3.41173,3.71969 3.00322,1.0432 7.34569,3.07012 12.92104,1.8896 5.5754,-1.1806 7.20624,-2.04155 7.20624,-2.04155 0,0 -1.43154,-1.4306 8.86921,-6.58711 2.78442,-1.3938 4.86928,-1.9229 7.72757,-2.32564 0.5455,-0.0768 -3.25413,-4.02328 -2.71225,-4.06986 -2.13365,0.62896 -14.87007,0.25474 -16.45158,0.11895 -0.54189,-0.0466 3.25775,-3.99306 2.71225,-4.06987 -2.85832,-0.40273 -4.94319,-0.9252 -7.72758,-2.31904 -9.59257,-4.80197 -9.00778,-6.37319 -8.8824,-6.56728 -0.0496,0.0777 -5.08476,7.96321 -4.97574,9.26291 -0.10957,1.30612 4.98893,9.29595 4.98893,9.29595 0,0 -1.63087,-0.86757 -7.20623,-2.04817 -5.57535,-1.18049 -9.91784,0.85302 -12.92106,1.8962 0.2281,0.92642 2.54105,1.87321 3.41175,3.7197 z"
         id="rect5362-4"
         inkscape:connector-curvature="0" />
      <path
         style="fill:#000000;fill-opacity:1;stroke:none"
         d="m 175.34022,153.32686 c 0.8896,-0.0765 5.30809,-0.22576 9.38392,-0.23125 3.17013,-0.004 6.1342,0.0816 7.06766,0.35677 -0.8707,1.84645 -3.18367,2.79328 -3.41173,3.71969 3.00322,1.04319 7.34569,3.07011 12.92104,1.8896 5.5754,-1.1806 7.20624,-2.04155 7.20624,-2.04155 0,0 -1.43154,-1.43061 8.8692,-6.58711 2.78443,-1.3938 4.86929,-1.9229 7.72758,-2.32564 0.5455,-0.0768 -3.25414,-4.02329 -2.71225,-4.06986 -2.13366,0.62895 -14.87007,0.25474 -16.45158,0.11894 -0.54189,-0.0466 3.25775,-3.99305 2.71225,-4.06986 -2.85832,-0.40274 -4.94319,-0.9252 -7.72758,-2.31904 -9.59258,-4.80198 -9.00778,-6.3732 -8.88241,-6.56728 -0.0496,0.0777 -5.08476,7.96321 -4.97573,9.2629 -0.10957,1.30612 4.98893,9.29595 4.98893,9.29595 0,0 -1.63088,-0.86757 -7.20623,-2.04817 -5.57535,-1.18049 -9.91785,0.85303 -12.92107,1.8962 0.22811,0.92643 2.54105,1.87322 3.41176,3.71971 z"
         id="rect5362-9"
         inkscape:connector-curvature="0" />
      <path
         style="fill:#000000;fill-opacity:1;stroke:none"
         d="m 64.785264,146.05925 c 0.889603,-0.0765 5.308096,-0.22576 9.38392,-0.23126 3.17013,-0.004 6.134199,0.0816 7.067662,0.35678 -0.870703,1.84645 -3.183666,2.79328 -3.411732,3.71968 3.00322,1.0432 7.345691,3.07012 12.921045,1.8896 5.575397,-1.1806 7.206233,-2.04155 7.206233,-2.04155 0,0 -1.431533,-1.4306 8.869208,-6.58711 2.78443,-1.39379 4.86928,-1.9229 7.72758,-2.32563 0.54549,-0.0768 -3.25414,-4.02329 -2.71225,-4.06987 -2.13366,0.62896 -14.870076,0.25474 -16.451583,0.11895 -0.541887,-0.0466 3.257745,-3.99306 2.712247,-4.06987 -2.858314,-0.40273 -4.943191,-0.9252 -7.727574,-2.31904 -9.592578,-4.80197 -9.00778,-6.37319 -8.882408,-6.56728 -0.04962,0.0777 -5.08476,7.96322 -4.975732,9.26291 -0.109577,1.30612 4.98893,9.29595 4.98893,9.29595 0,0 -1.630878,-0.86757 -7.206232,-2.04817 -5.575355,-1.18049 -9.917846,0.85302 -12.921066,1.8962 0.228107,0.92643 2.541049,1.87321 3.411752,3.71971 z"
         id="rect5362-92"
         inkscape:connector-curvature="0" />
      <path
         style="fill:#000000;fill-opacity:1;stroke:none"
         d="m 158.88861,127.48058 c 0.88961,-0.0765 5.3081,-0.22575 9.38392,-0.23125 3.17013,-0.004 6.1342,0.0816 7.06767,0.35677 -0.87071,1.84645 -3.18367,2.79328 -3.41174,3.71969 3.00322,1.0432 7.34569,3.07011 12.92105,1.8896 5.5754,-1.1806 7.20623,-2.04155 7.20623,-2.04155 0,0 -1.43153,-1.4306 8.86921,-6.58711 2.78443,-1.3938 4.86928,-1.9229 7.72758,-2.32564 0.54549,-0.0768 -3.25414,-4.02328 -2.71225,-4.06986 -2.13366,0.62896 -14.87008,0.25474 -16.45158,0.11894 -0.54189,-0.0466 3.25774,-3.99305 2.71224,-4.06986 -2.85831,-0.40274 -4.94319,-0.9252 -7.72757,-2.31904 -9.59258,-4.80197 -9.00778,-6.37319 -8.88241,-6.56728 -0.0496,0.0777 -5.08476,7.96321 -4.97573,9.26291 -0.10958,1.30611 4.98893,9.29594 4.98893,9.29594 0,0 -1.63088,-0.86756 -7.20623,-2.04816 -5.57536,-1.1805 -9.91785,0.85302 -12.92107,1.89619 0.22811,0.92643 2.54105,1.87322 3.41175,3.71971 z"
         id="rect5362-5"
         inkscape:connector-curvature="0" />
      <path
         style="fill:#000000;fill-opacity:1;stroke:none"
         d="m 95.37217,110.95006 c 0.889603,-0.0765 5.3081,-0.22575 9.38392,-0.23125 3.17013,-0.004 6.1342,0.0816 7.06766,0.35678 -0.8707,1.84644 -3.18366,2.79327 -3.41173,3.71968 3.00322,1.0432 7.34569,3.07012 12.92104,1.8896 5.5754,-1.1806 7.20624,-2.04155 7.20624,-2.04155 0,0 -1.43153,-1.4306 8.86921,-6.58711 2.78442,-1.39379 4.86928,-1.9229 7.72757,-2.32563 0.5455,-0.0768 -3.25413,-4.02329 -2.71225,-4.06987 -2.13365,0.62896 -14.87007,0.25474 -16.45158,0.11895 -0.54188,-0.0466 3.25775,-3.993057 2.71225,-4.069867 -2.85831,-0.402736 -4.94319,-0.925201 -7.72757,-2.31904 -9.59258,-4.801974 -9.00778,-6.373195 -8.88241,-6.56728 -0.0496,0.07774 -5.08476,7.963212 -4.97573,9.262904 -0.10958,1.30612 4.98893,9.295953 4.98893,9.295953 0,0 -1.63088,-0.86757 -7.20624,-2.04817 -5.575351,-1.18049 -9.917843,0.85302 -12.921063,1.8962 0.228108,0.92642 2.54105,1.87321 3.411753,3.7197 z"
         id="rect5362-53"
         inkscape:connector-curvature="0" />
      <path
         style="fill:#000000;fill-opacity:1;stroke:none"
         d="m 205.9271,118.21766 c 0.8896,-0.0765 5.3081,-0.22576 9.38392,-0.23126 3.17013,-0.004 6.1342,0.0816 7.06766,0.35678 -0.8707,1.84645 -3.18366,2.79328 -3.41173,3.71968 3.00322,1.0432 7.34569,3.07012 12.92105,1.8896 5.57539,-1.18059 7.20623,-2.04154 7.20623,-2.04154 0,0 -1.43153,-1.43061 8.86921,-6.58712 2.78442,-1.39379 4.86928,-1.9229 7.72757,-2.32563 0.5455,-0.0768 -3.25413,-4.02329 -2.71224,-4.06987 -2.13366,0.62896 -14.87008,0.25475 -16.45159,0.11895 -0.54188,-0.0466 3.25775,-3.99305 2.71225,-4.06986 -2.85831,-0.40274 -4.94319,-0.92521 -7.72757,-2.31904 -9.59258,-4.801978 -9.00778,-6.373199 -8.88241,-6.567284 -0.0496,0.07774 -5.08476,7.963214 -4.97573,9.262904 -0.10958,1.30612 4.98893,9.29595 4.98893,9.29595 0,0 -1.63088,-0.86757 -7.20623,-2.04817 -5.57536,-1.18049 -9.91785,0.85302 -12.92107,1.8962 0.22811,0.92643 2.54105,1.87321 3.41175,3.71971 z"
         id="rect5362-3"
         inkscape:connector-curvature="0" />
      <path
         style="fill:#000000;fill-opacity:1;stroke:none"
         d="m 48.320485,120.2394 c 0.889602,-0.0765 5.308095,-0.22576 9.383919,-0.23126 3.17013,-0.004 6.134199,0.0816 7.067662,0.35678 -0.870703,1.84645 -3.183666,2.79328 -3.411731,3.71968 3.00322,1.0432 7.34569,3.07012 12.921044,1.8896 5.575397,-1.18059 7.206233,-2.04155 7.206233,-2.04155 0,0 -1.431532,-1.4306 8.86921,-6.58711 2.784425,-1.39379 4.869281,-1.9229 7.727573,-2.32563 0.545499,-0.0768 -3.254134,-4.02329 -2.712246,-4.06987 -2.133657,0.62896 -14.870075,0.25474 -16.451582,0.11895 -0.541887,-0.0466 3.257746,-3.99306 2.712247,-4.06986 -2.858314,-0.40274 -4.943191,-0.92521 -7.727574,-2.31904 -9.592578,-4.801979 -9.00778,-6.3732 -8.882408,-6.567285 -0.04962,0.07774 -5.08476,7.963215 -4.975732,9.262905 -0.109577,1.30612 4.988931,9.29595 4.988931,9.29595 0,0 -1.630879,-0.86757 -7.206233,-2.04817 -5.575354,-1.18049 -9.917846,0.85302 -12.921066,1.8962 0.228107,0.92643 2.54105,1.87321 3.411753,3.71971 z"
         id="rect5362-37"
         inkscape:connector-curvature="0" />
      <path
         inkscape:connector-curvature="0"
         style="fill:#ffffff;stroke:none"
         d="m 151.82095,101.40307 c -4.07586,0.005 -8.49434,0.15483 -9.38394,0.23126 -0.54189,0.0465 3.25775,3.99301 2.71225,4.06986 -2.85829,0.40272 -4.94319,0.9318 -7.72758,2.32564 -10.30076,5.15648 -8.86921,6.58709 -8.86921,6.58709 0,0 -1.43155,1.43722 8.86921,6.5937 2.78439,1.39384 4.86929,1.91631 7.72758,2.31902 0.5455,0.0768 -3.25414,4.02333 -2.71225,4.06987 1.58151,0.13583 14.31793,0.51003 16.45158,-0.11891 -0.8707,-1.84647 -3.18362,-2.79328 -3.41173,-3.7197 3.00322,-1.04318 7.34571,-3.07674 12.92107,-1.8962 5.57535,1.18056 7.20623,2.04817 7.20623,2.04817 0,0 -5.09851,-7.98983 -4.98893,-9.29595 -0.10958,-1.30612 4.98893,-9.28934 4.98893,-9.28934 0,0 -1.63088,0.861 -7.20623,2.04155 -5.57536,1.18054 -9.91785,-0.84642 -12.92107,-1.8896 0.22811,-0.92642 2.54103,-1.87323 3.41173,-3.71968 -0.93346,-0.27517 -3.89753,-0.36111 -7.06764,-0.35678 z"
         id="path4608-0-8-2-4-0-8-4-1-96-8-4" />
      <path
         inkscape:connector-curvature="0"
         style="fill:#ffffff;stroke:none"
         d="m 215.31104,117.9864 c -4.07586,0.005 -8.49434,0.15483 -9.38394,0.23126 -0.54189,0.0465 3.25775,3.99301 2.71225,4.06986 -2.85829,0.40272 -4.94319,0.9318 -7.72758,2.32564 -10.30076,5.15648 -8.86921,6.58709 -8.86921,6.58709 0,0 -1.43155,1.43722 8.86921,6.5937 2.78439,1.39384 4.86929,1.91631 7.72758,2.31902 0.5455,0.0769 -3.25414,4.02333 -2.71225,4.06987 1.58151,0.13584 14.31793,0.51003 16.45158,-0.11891 -0.8707,-1.84647 -3.18362,-2.79328 -3.41173,-3.7197 3.00322,-1.04318 7.34571,-3.07674 12.92107,-1.8962 5.57535,1.18056 7.20623,2.04817 7.20623,2.04817 0,0 -5.09851,-7.98983 -4.98893,-9.29595 -0.10958,-1.30612 4.98893,-9.28933 4.98893,-9.28933 0,0 -1.63088,0.86099 -7.20623,2.04154 -5.57536,1.18054 -9.91785,-0.84642 -12.92107,-1.8896 0.22811,-0.92642 2.54103,-1.87323 3.41173,-3.71968 -0.93346,-0.27517 -3.89753,-0.36111 -7.06764,-0.35678 z"
         id="path4608-0-8-2-4-0-8-4-1-96-8-3" />
      <path
         inkscape:connector-curvature="0"
         style="fill:#ffffff;stroke:none"
         d="m 198.85944,92.140127 c -4.07587,0.0055 -8.49434,0.154824 -9.38394,0.231253 -0.54189,0.04653 3.25774,3.993012 2.71225,4.069863 -2.8583,0.402716 -4.9432,0.931798 -7.72758,2.325637 -10.30076,5.15649 -8.86921,6.58709 -8.86921,6.58709 0,0 -1.43155,1.43722 8.86921,6.59371 2.78438,1.39384 4.86928,1.9163 7.72758,2.31902 0.54549,0.0768 -3.25414,4.02333 -2.71225,4.06986 1.58151,0.13584 14.31792,0.51003 16.45158,-0.1189 -0.8707,-1.84647 -3.18362,-2.79328 -3.41173,-3.71971 3.00322,-1.04318 7.34571,-3.07673 12.92107,-1.8962 5.57535,1.18056 7.20623,2.04817 7.20623,2.04817 0,0 -5.09851,-7.98983 -4.98893,-9.29595 -0.10958,-1.30612 4.98893,-9.289332 4.98893,-9.289332 0,0 -1.63088,0.860993 -7.20623,2.04155 -5.57536,1.180535 -9.91785,-0.846426 -12.92107,-1.889601 0.22811,-0.926428 2.54103,-1.873237 3.41173,-3.719686 -0.93346,-0.275165 -3.89753,-0.361108 -7.06764,-0.356774 z"
         id="path4608-0-8-2-4-0-8-4-1-96-8-8" />
      <path
         inkscape:connector-curvature="0"
         style="fill:#ffffff;stroke:none"
         d="m 57.717602,119.98172 c -4.075866,0.005 -8.494338,0.15482 -9.38394,0.23125 -0.541888,0.0465 3.257745,3.99301 2.712246,4.06986 -2.858293,0.40272 -4.943191,0.9318 -7.727573,2.32564 -10.300764,5.15648 -8.86921,6.58709 -8.86921,6.58709 0,0 -1.431554,1.43722 8.86921,6.59371 2.784382,1.39383 4.86928,1.9163 7.727573,2.31902 0.545499,0.0768 -3.254134,4.02333 -2.712246,4.06986 1.581506,0.13584 14.317924,0.51003 16.451581,-0.1189 -0.870703,-1.84648 -3.183624,-2.79328 -3.411731,-3.71971 3.00322,-1.04318 7.345711,-3.07673 12.921066,-1.8962 5.575354,1.18056 7.206232,2.04817 7.206232,2.04817 0,0 -5.098507,-7.98983 -4.98893,-9.29595 -0.109577,-1.30612 4.98893,-9.28933 4.98893,-9.28933 0,0 -1.630878,0.86099 -7.206232,2.04155 -5.575355,1.18053 -9.917846,-0.84643 -12.921066,-1.8896 0.228107,-0.92643 2.541028,-1.87324 3.411731,-3.71969 -0.933463,-0.27517 -3.897532,-0.36111 -7.067641,-0.35677 z"
         id="path4608-0-8-2-4-0-8-4-1-96-8-0" />
      <path
         inkscape:connector-curvature="0"
         style="fill:#ffffff;stroke:none"
         d="m 88.304508,84.872555 c -4.075866,0.0055 -8.494338,0.154824 -9.383941,0.231253 -0.541887,0.04653 3.257746,3.993012 2.712247,4.069864 -2.858293,0.402716 -4.943191,0.931798 -7.727574,2.325636 -10.300763,5.156486 -8.869209,6.587091 -8.869209,6.587091 0,0 -1.431554,1.437222 8.869209,6.593711 2.784383,1.39383 4.869281,1.9163 7.727574,2.31902 0.545499,0.0769 -3.254134,4.02332 -2.712247,4.06986 1.581507,0.13584 14.317925,0.51003 16.451582,-0.1189 -0.870703,-1.84648 -3.183624,-2.79328 -3.411732,-3.71971 3.00322,-1.04318 7.345712,-3.07673 12.921063,-1.8962 5.57536,1.18056 7.20624,2.04817 7.20624,2.04817 0,0 -5.09851,-7.989832 -4.98893,-9.295951 -0.10958,-1.30612 4.98893,-9.289332 4.98893,-9.289332 0,0 -1.63088,0.860993 -7.20624,2.041549 -5.575351,1.180536 -9.917843,-0.846426 -12.921063,-1.889601 0.228108,-0.926427 2.541029,-1.873236 3.411732,-3.719686 -0.933463,-0.275165 -3.897532,-0.361108 -7.067641,-0.356774 z"
         id="path4608-0-8-2-4-0-8-4-1-96-8-88" />
      <path
         inkscape:connector-curvature="0"
         style="fill:#ffffff;stroke:none"
         d="m 135.35619,75.583224 c -4.07586,0.0055 -8.49433,0.154824 -9.38394,0.231253 -0.54188,0.04653 3.25775,3.993012 2.71225,4.069863 -2.85829,0.402716 -4.94319,0.931798 -7.72757,2.325637 -10.30077,5.156485 -8.86921,6.58709 -8.86921,6.58709 0,0 -1.43156,1.437222 8.86921,6.593708 2.78438,1.393838 4.86928,1.916303 7.72757,2.319018 0.5455,0.07685 -3.25413,4.023327 -2.71225,4.069867 1.58151,0.13584 14.31793,0.51003 16.45158,-0.11891 -0.8707,-1.846467 -3.18362,-2.793276 -3.41173,-3.719704 3.00322,-1.043174 7.34571,-3.076732 12.92107,-1.896197 5.57535,1.180557 7.20623,2.048167 7.20623,2.048167 0,0 -5.09851,-7.989829 -4.98893,-9.295949 -0.10958,-1.30612 4.98893,-9.289332 4.98893,-9.289332 0,0 -1.63088,0.860993 -7.20623,2.041549 -5.57536,1.180536 -9.91785,-0.846425 -12.92107,-1.8896 0.22811,-0.926428 2.54103,-1.873237 3.41173,-3.719687 -0.93346,-0.275165 -3.89753,-0.361107 -7.06764,-0.356773 z"
         id="path4608-0-8-2-4-0-8-4-1-96-8-06" />
      <path
         inkscape:connector-curvature="0"
         style="fill:#ffffff;stroke:none"
         d="m 182.40788,66.293892 c -4.07587,0.0055 -8.49434,0.154824 -9.38394,0.231253 -0.54189,0.04653 3.25774,3.993012 2.71224,4.069864 -2.85829,0.402715 -4.94319,0.931797 -7.72757,2.325636 -10.30076,5.156485 -8.86921,6.58709 -8.86921,6.58709 0,0 -1.43155,1.437222 8.86921,6.593708 2.78438,1.393838 4.86928,1.916303 7.72757,2.319019 0.5455,0.07685 -3.25413,4.02333 -2.71224,4.069863 1.58151,0.135839 14.31792,0.510034 16.45158,-0.118903 -0.8707,-1.846471 -3.18362,-2.79328 -3.41173,-3.719707 3.00322,-1.043175 7.34571,-3.076733 12.92106,-1.896197 5.57536,1.180556 7.20624,2.048166 7.20624,2.048166 0,0 -5.09851,-7.989829 -4.98893,-9.295949 -0.10958,-1.30612 4.98893,-9.289332 4.98893,-9.289332 0,0 -1.63088,0.860993 -7.20624,2.04155 -5.57535,1.180535 -9.91784,-0.846426 -12.92106,-1.889601 0.22811,-0.926428 2.54103,-1.873237 3.41173,-3.719686 -0.93346,-0.275165 -3.89753,-0.361108 -7.06764,-0.356774 z"
         id="path4608-0-8-2-4-0-8-4-1-96-8-81" />
      <path
         style="fill:#000000;fill-opacity:1;stroke:none"
         d="m 142.42386,101.66075 c 0.8896,-0.0765 5.30809,-0.22575 9.38392,-0.23125 3.17013,-0.004 6.13419,0.0816 7.06766,0.35677 -0.87071,1.84645 -3.18367,2.79328 -3.41173,3.71969 3.00322,1.0432 7.34569,3.07012 12.92104,1.8896 5.5754,-1.1806 7.20623,-2.04155 7.20623,-2.04155 0,0 -1.43153,-1.4306 8.86921,-6.587109 2.78443,-1.393796 4.86928,-1.9229 7.72758,-2.325636 0.5455,-0.07681 -3.25414,-4.023288 -2.71225,-4.069864 -2.13366,0.628958 -14.87007,0.254742 -16.45158,0.118946 -0.54189,-0.04658 3.25774,-3.993055 2.71224,-4.069864 -2.85831,-0.402737 -4.94319,-0.925202 -7.72757,-2.31904 -9.59258,-4.801974 -9.00778,-6.373195 -8.88241,-6.56728 -0.0496,0.07774 -5.08476,7.963211 -4.97573,9.262904 -0.10958,1.30612 4.98893,9.295949 4.98893,9.295949 0,0 -1.63088,-0.867568 -7.20623,-2.048167 -5.57536,-1.180493 -9.91785,0.853023 -12.92107,1.896197 0.22811,0.926428 2.54105,1.873216 3.41176,3.719704 z"
         id="rect5362-53-9"
         inkscape:connector-curvature="0" />
      <path
         style="fill:#000000;fill-opacity:1;stroke:none"
         d="m 222.3787,144.06393 c 0.88961,-0.0765 5.3081,-0.22575 9.38392,-0.23125 3.17013,-0.004 6.1342,0.0816 7.06767,0.35677 -0.87071,1.84645 -3.18367,2.79328 -3.41174,3.71969 3.00322,1.0432 7.34569,3.07012 12.92105,1.8896 5.5754,-1.1806 7.20623,-2.04155 7.20623,-2.04155 0,0 -1.43153,-1.4306 8.86921,-6.58711 2.78443,-1.39379 4.86928,-1.9229 7.72758,-2.32564 0.54549,-0.0768 -3.25414,-4.02328 -2.71225,-4.06986 -2.13366,0.62896 -14.87008,0.25474 -16.45158,0.11895 -0.54189,-0.0466 3.25774,-3.99306 2.71224,-4.06987 -2.85831,-0.40273 -4.94319,-0.9252 -7.72757,-2.31904 -9.59258,-4.80197 -9.00778,-6.37319 -8.88241,-6.56728 -0.0496,0.0777 -5.08476,7.96321 -4.97573,9.26291 -0.10958,1.30612 4.98893,9.29595 4.98893,9.29595 0,0 -1.63088,-0.86757 -7.20623,-2.04817 -5.57536,-1.18049 -9.91785,0.85302 -12.92107,1.8962 0.22811,0.92642 2.54105,1.87321 3.41175,3.7197 z"
         id="rect5362-53-8"
         inkscape:connector-curvature="0" />
      <path
         style="fill:#000000;fill-opacity:1;stroke:none"
         d="m 189.47554,92.371422 c 0.8896,-0.07647 5.3081,-0.225756 9.38392,-0.231253 3.17013,-0.0044 6.1342,0.08161 7.06766,0.356774 -0.8707,1.84645 -3.18366,2.79328 -3.41173,3.719686 3.00322,1.043196 7.34569,3.070115 12.92105,1.889601 5.57539,-1.180599 7.20623,-2.041549 7.20623,-2.041549 0,0 -1.43153,-1.430605 8.86921,-6.587112 2.78442,-1.393796 4.86928,-1.922899 7.72757,-2.325636 0.5455,-0.07681 -3.25413,-4.023288 -2.71224,-4.069864 -2.13366,0.628958 -14.87008,0.254742 -16.45159,0.118946 -0.54188,-0.04658 3.25775,-3.993054 2.71225,-4.069864 -2.85831,-0.402737 -4.94319,-0.925201 -7.72757,-2.31904 -9.59258,-4.801974 -9.00778,-6.373195 -8.88241,-6.56728 -0.0496,0.07774 -5.08476,7.963212 -4.97573,9.262904 -0.10958,1.30612 4.98893,9.295949 4.98893,9.295949 0,0 -1.63088,-0.867568 -7.20624,-2.048166 -5.57535,-1.180494 -9.91784,0.853022 -12.92106,1.896197 0.22811,0.926427 2.54105,1.873215 3.41175,3.719707 z"
         id="rect5362-53-97"
         inkscape:connector-curvature="0" />
      <path
         style="fill:#000000;fill-opacity:1;stroke:none"
         d="m 125.97227,75.814498 c 0.88961,-0.07647 5.3081,-0.225756 9.38392,-0.231253 3.17013,-0.0044 6.1342,0.08161 7.06767,0.356774 -0.87071,1.846449 -3.18367,2.793279 -3.41174,3.719686 3.00322,1.043196 7.34569,3.070115 12.92105,1.889601 5.5754,-1.180599 7.20623,-2.04155 7.20623,-2.04155 0,0 -1.43153,-1.430604 8.86921,-6.587111 2.78443,-1.393796 4.86928,-1.9229 7.72757,-2.325636 0.5455,-0.07681 -3.25413,-4.023288 -2.71224,-4.069864 -2.13366,0.628958 -14.87008,0.254742 -16.45158,0.118946 -0.54189,-0.04658 3.25774,-3.993055 2.71224,-4.069864 -2.85831,-0.402737 -4.94319,-0.925202 -7.72757,-2.31904 -9.59258,-4.801974 -9.00778,-6.373195 -8.88241,-6.56728 -0.0496,0.07774 -5.08476,7.963211 -4.97573,9.262904 -0.10958,1.30612 4.98893,9.295949 4.98893,9.295949 0,0 -1.63088,-0.867568 -7.20623,-2.048167 -5.57536,-1.180493 -9.91785,0.853023 -12.92107,1.896197 0.22811,0.926428 2.54105,1.873216 3.41175,3.719708 z"
         id="rect5362-53-2"
         inkscape:connector-curvature="0" />
      <path
         style="fill:#000000;fill-opacity:1;stroke:none"
         d="m 78.90739,85.130215 c 0.889603,-0.07647 5.308096,-0.225756 9.38392,-0.231253 3.17013,-0.0044 6.134199,0.08161 7.067662,0.356774 -0.870703,1.846449 -3.183666,2.793279 -3.411732,3.719686 3.00322,1.043196 7.345691,3.070115 12.92105,1.889601 5.57539,-1.180599 7.20623,-2.04155 7.20623,-2.04155 0,0 -1.43153,-1.430604 8.86921,-6.587111 2.78442,-1.393796 4.86928,-1.9229 7.72757,-2.325636 0.5455,-0.07681 -3.25413,-4.023288 -2.71225,-4.069864 -2.13365,0.628958 -14.87007,0.254742 -16.45158,0.118946 -0.54188,-0.04658 3.25775,-3.993055 2.71225,-4.069864 -2.85831,-0.402737 -4.94319,-0.925202 -7.72757,-2.31904 -9.592582,-4.801974 -9.007784,-6.373195 -8.882412,-6.56728 -0.04962,0.07774 -5.08476,7.963211 -4.975732,9.262904 -0.109577,1.30612 4.98893,9.295949 4.98893,9.295949 0,0 -1.630878,-0.867568 -7.206233,-2.048167 -5.575354,-1.180493 -9.917845,0.853023 -12.921065,1.896197 0.228107,0.926428 2.541049,1.873216 3.411752,3.719708 z"
         id="rect5362-53-28"
         inkscape:connector-curvature="0" />
      <path
         style="fill:#000000;fill-opacity:1;stroke:none"
         d="m 173.02396,66.525145 c 0.8896,-0.07647 5.30809,-0.225756 9.38392,-0.231253 3.17013,-0.0044 6.1342,0.08161 7.06766,0.356774 -0.8707,1.846449 -3.18367,2.793279 -3.41173,3.719686 3.00322,1.043196 7.34569,3.070115 12.92104,1.889601 5.5754,-1.180599 7.20624,-2.04155 7.20624,-2.04155 0,0 -1.43154,-1.430604 8.86921,-6.587111 2.78442,-1.393796 4.86928,-1.9229 7.72757,-2.325636 0.5455,-0.07681 -3.25413,-4.023288 -2.71225,-4.069864 -2.13365,0.628958 -14.87007,0.254742 -16.45158,0.118946 -0.54188,-0.04658 3.25775,-3.993055 2.71225,-4.069864 -2.85831,-0.402737 -4.94319,-0.925202 -7.72757,-2.31904 -9.59258,-4.801974 -9.00779,-6.373195 -8.88241,-6.56728 -0.0496,0.07774 -5.08476,7.963212 -4.97573,9.262904 -0.10958,1.30612 4.98893,9.295949 4.98893,9.295949 0,0 -1.63088,-0.867568 -7.20624,-2.048167 -5.57535,-1.180493 -9.91784,0.853023 -12.92106,1.896197 0.2281,0.926428 2.54105,1.873216 3.41175,3.719708 z"
         id="rect5362-53-289"
         inkscape:connector-curvature="0" />
      <path
         style="fill:#000000;fill-opacity:1;stroke:none"
         d="m 156.55918,40.705295 c 0.8896,-0.07647 5.30809,-0.225755 9.38392,-0.231252 3.17013,-0.0044 6.1342,0.08161 7.06766,0.356773 -0.8707,1.84645 -3.18366,2.79328 -3.41173,3.719687 3.00322,1.043195 7.34569,3.070114 12.92104,1.8896 5.5754,-1.180598 7.20624,-2.041549 7.20624,-2.041549 0,0 -1.43154,-1.430605 8.86921,-6.587111 2.78442,-1.393797 4.86928,-1.9229 7.72757,-2.325637 0.5455,-0.07681 -3.25413,-4.023287 -2.71225,-4.069863 -2.13365,0.628957 -14.87007,0.254741 -16.45158,0.118945 -0.54189,-0.04658 3.25775,-3.993054 2.71225,-4.069863 -2.85832,-0.402737 -4.94319,-0.925202 -7.72757,-2.31904 -9.59258,-4.801974 -9.00779,-6.373196 -8.88241,-6.567281 -0.0496,0.07774 -5.08476,7.963212 -4.97573,9.262905 -0.10958,1.306119 4.98893,9.295949 4.98893,9.295949 0,0 -1.63088,-0.867568 -7.20624,-2.048167 -5.57535,-1.180493 -9.91784,0.853022 -12.92106,1.896197 0.2281,0.926428 2.54105,1.873216 3.41175,3.719707 z"
         id="rect5362-53-0"
         inkscape:connector-curvature="0" />
      <path
         inkscape:connector-curvature="0"
         style="fill:#ffffff;stroke:none"
         d="m 165.9563,40.447615 c -4.07587,0.0055 -8.49434,0.154824 -9.38394,0.231253 -0.54189,0.04653 3.25774,3.993012 2.71224,4.069863 -2.85829,0.402716 -4.94319,0.931798 -7.72757,2.325637 -10.30076,5.156485 -8.86921,6.58709 -8.86921,6.58709 0,0 -1.43155,1.437222 8.86921,6.593708 2.78438,1.393838 4.86928,1.916303 7.72757,2.319019 0.5455,0.07685 -3.25413,4.023329 -2.71224,4.069863 1.5815,0.135839 14.31792,0.510033 16.45158,-0.118903 -0.8707,-1.846471 -3.18363,-2.79328 -3.41173,-3.719708 3.00322,-1.043174 7.34571,-3.076732 12.92106,-1.896197 5.57536,1.180557 7.20624,2.048167 7.20624,2.048167 0,0 -5.09851,-7.989829 -4.98893,-9.295949 -0.10958,-1.30612 4.98893,-9.289332 4.98893,-9.289332 0,0 -1.63088,0.860993 -7.20624,2.04155 -5.57535,1.180535 -9.91784,-0.846426 -12.92106,-1.889601 0.2281,-0.926428 2.54103,-1.873237 3.41173,-3.719686 -0.93346,-0.275165 -3.89753,-0.361108 -7.06764,-0.356774 z"
         id="path4608-0-8-2-4-0-8-4-1-96-8-06-8" />
      <path
         style="fill:#000000;fill-opacity:1;stroke:none"
         d="m 220.07562,57.235792 c 0.88961,-0.07647 5.3081,-0.225756 9.38392,-0.231253 3.17013,-0.0044 6.1342,0.08161 7.06767,0.356774 -0.87071,1.84645 -3.18367,2.79328 -3.41174,3.719686 3.00322,1.043196 7.34569,3.070115 12.92105,1.889601 5.5754,-1.180599 7.20623,-2.041549 7.20623,-2.041549 0,0 -1.43153,-1.430605 8.86921,-6.587112 2.78443,-1.393796 4.86928,-1.922899 7.72757,-2.325636 0.5455,-0.07681 -3.25413,-4.023288 -2.71224,-4.069864 -2.13366,0.628958 -14.87008,0.254742 -16.45158,0.118946 -0.54189,-0.04658 3.25774,-3.993054 2.71224,-4.069864 -2.85831,-0.402737 -4.94319,-0.925201 -7.72757,-2.31904 -9.59258,-4.801974 -9.00778,-6.373195 -8.88241,-6.56728 -0.0496,0.07774 -5.08476,7.963212 -4.97573,9.262904 -0.10958,1.30612 4.98893,9.295949 4.98893,9.295949 0,0 -1.63088,-0.867568 -7.20623,-2.048166 -5.57536,-1.180494 -9.91785,0.853022 -12.92107,1.896197 0.22811,0.926427 2.54105,1.873215 3.41175,3.719707 z"
         id="rect5362-53-0-1"
         inkscape:connector-curvature="0" />
      <path
         inkscape:connector-curvature="0"
         style="fill:#ffffff;stroke:none"
         d="m 74.169205,145.82799 c -4.075866,0.006 -8.494338,0.15483 -9.383941,0.23126 -0.541887,0.0465 3.257746,3.99301 2.712247,4.06986 -2.858293,0.40271 -4.943191,0.9318 -7.727574,2.32564 -10.300763,5.15648 -8.869209,6.58709 -8.869209,6.58709 0,0 -1.431554,1.43722 8.869209,6.5937 2.784383,1.39384 4.869281,1.91631 7.727574,2.31902 0.545499,0.0769 -3.254134,4.02333 -2.712247,4.06987 1.581507,0.13583 14.317925,0.51003 16.451582,-0.11891 -0.870703,-1.84647 -3.183624,-2.79328 -3.411732,-3.7197 3.00322,-1.04318 7.345712,-3.07674 12.921066,-1.8962 5.575354,1.18055 7.206233,2.04816 7.206233,2.04816 0,0 -5.098507,-7.98982 -4.98893,-9.29594 -0.109577,-1.30612 4.98893,-9.28934 4.98893,-9.28934 0,0 -1.630879,0.861 -7.206233,2.04155 -5.575354,1.18054 -9.917846,-0.84642 -12.921066,-1.8896 0.228108,-0.92643 2.541029,-1.87323 3.411732,-3.71968 -0.933463,-0.27517 -3.897532,-0.36111 -7.067641,-0.35678 z"
         id="path4608-0-8-2-4-0-8-4-1-9-4-5" />
      <path
         inkscape:connector-curvature="0"
         style="fill:#ffffff;stroke:none"
         d="m 137.67247,162.38492 c -4.07586,0.005 -8.49434,0.15482 -9.38394,0.23125 -0.54189,0.0465 3.25775,3.99301 2.71225,4.06986 -2.85829,0.40272 -4.94319,0.9318 -7.72758,2.32564 -10.30076,5.15649 -8.86921,6.58709 -8.86921,6.58709 0,0 -1.43155,1.43722 8.86921,6.59371 2.78439,1.39384 4.86929,1.9163 7.72758,2.31902 0.5455,0.0768 -3.25414,4.02333 -2.71225,4.06986 1.58151,0.13584 14.31793,0.51003 16.45158,-0.1189 -0.8707,-1.84647 -3.18362,-2.79328 -3.41173,-3.71971 3.00322,-1.04318 7.34571,-3.07673 12.92107,-1.8962 5.57535,1.18056 7.20623,2.04817 7.20623,2.04817 0,0 -5.09851,-7.98983 -4.98893,-9.29595 -0.10958,-1.30612 4.98893,-9.28933 4.98893,-9.28933 0,0 -1.63088,0.86099 -7.20623,2.04155 -5.57536,1.18053 -9.91785,-0.84643 -12.92107,-1.8896 0.22811,-0.92643 2.54103,-1.87324 3.41173,-3.71969 -0.93346,-0.27516 -3.89753,-0.36111 -7.06764,-0.35677 z"
         id="path4608-0-8-2-4-0-8-4-1-9-4-8" />
      <path
         style="fill:#000000;fill-opacity:1;stroke:none"
         d="m 250.66251,22.12659 c 0.8896,-0.07647 5.30809,-0.225756 9.38392,-0.231253 3.17013,-0.0044 6.1342,0.08161 7.06766,0.356774 -0.8707,1.846449 -3.18367,2.793279 -3.41173,3.719686 3.00322,1.043196 7.34569,3.070115 12.92104,1.889601 5.5754,-1.180599 7.20624,-2.04155 7.20624,-2.04155 0,0 -1.43154,-1.430604 8.86921,-6.587111 2.78442,-1.393796 4.86928,-1.9229 7.72757,-2.325637 0.5455,-0.07681 -3.25413,-4.023287 -2.71225,-4.069863 -2.13365,0.628958 -14.87007,0.254742 -16.45158,0.118946 -0.54189,-0.04658 3.25775,-3.9930547 2.71225,-4.0698642 -2.85832,-0.4027368 -4.94319,-0.9252015 -7.72758,-2.31904 C 266.65469,1.7653048 267.23948,0.1940837 267.36486,-1.2306051e-6 267.31523,0.07773845 262.2801,7.9632103 262.38912,9.2629028 c -0.10957,1.3061192 4.98893,9.2959492 4.98893,9.2959492 0,0 -1.63087,-0.867568 -7.20623,-2.048167 -5.57535,-1.180493 -9.91784,0.853022 -12.92106,1.896197 0.2281,0.926428 2.54105,1.873216 3.41175,3.719708 z"
         id="rect5362-53-0-2-6"
         inkscape:connector-curvature="0" />
      <path
         inkscape:connector-curvature="0"
         style="fill:#ffffff;stroke:none"
         d="m 43.569101,180.9636 c -4.075866,0.005 -8.494338,0.15483 -9.383941,0.23125 -0.541887,0.0465 3.257746,3.99302 2.712247,4.06987 -2.858293,0.40271 -4.943191,0.9318 -7.727574,2.32563 -10.300763,5.15649 -8.869209,6.58709 -8.869209,6.58709 0,0 -1.431554,1.43723 8.869209,6.59371 2.784383,1.39384 4.869281,1.91631 7.727574,2.31902 0.545499,0.0769 -3.254134,4.02333 -2.712247,4.06986 1.581507,0.13584 14.317925,0.51004 16.451582,-0.1189 -0.870703,-1.84647 -3.183624,-2.79328 -3.411732,-3.71971 3.00322,-1.04317 7.345712,-3.07673 12.921066,-1.89619 5.575355,1.18055 7.206233,2.04816 7.206233,2.04816 0,0 -5.098507,-7.98983 -4.98893,-9.29595 -0.109577,-1.30612 4.98893,-9.28933 4.98893,-9.28933 0,0 -1.630878,0.861 -7.206233,2.04155 -5.575354,1.18054 -9.917846,-0.84642 -12.921066,-1.8896 0.228108,-0.92643 2.541029,-1.87324 3.411732,-3.71968 -0.933463,-0.27517 -3.897532,-0.36111 -7.067641,-0.35678 z"
         id="path4608-0-8-2-4-0-8-4-1-96-8-06-7-2" />
      <g
         id="g5770"
         transform="matrix(0.03710707,0,0,0.03715097,269.8193,203.9784)"
         style="fill:#ffffff;stroke:#ffffff">
        <path
           style="fill:#ffffff;stroke:#ffffff"
           d="m -204.43437,589.13121 c -5.33819,-1.98445 -4.13038,-7.9147 5.88845,-28.91189 7.34716,-15.398 14.62285,-37.56519 20.42492,-62.22963 2.42328,-10.3013 6.91068,-28.3013 9.97199,-40 3.06132,-11.69871 8.21622,-31.39537 11.45532,-43.77037 6.94449,-26.53142 13.83888,-49.21791 21.00193,-69.10841 2.85052,-7.91537 7.80674,-22.15164 11.01383,-31.63615 3.20709,-9.48451 10.78699,-29.73451 16.84422,-45 20.54495,-51.77757 28.11942,-71.41583 28.11942,-72.90496 0,-3.53386 -4.18255,-1.11196 -48.5069,28.08783 -37.62205,24.78449 -50.43595,33.58297 -52.45829,36.01975 -2.71314,3.26913 -8.03481,1.23375 -8.03481,-3.07307 0,-3.31867 6.85635,-8.83088 31.5,-25.32466 70.78087,-47.37301 81.17028,-52.89058 86.70982,-46.04955 4.04435,4.99457 4.88663,2.41268 -28.21522,86.48922 -6.49624,16.5 -14.58597,38.1 -17.97719,48 -3.39122,9.9 -8.11163,23.40287 -10.48981,30.00638 -7.42802,20.6255 -13.28572,40.56944 -24.66963,83.99362 -12.37768,47.21492 -17.86935,69.43378 -17.83399,72.15484 0.0314,2.41502 15.72406,-21.74195 42.00061,-64.65484 4.20972,-6.875 10.73169,-17.45 14.49325,-23.5 3.76157,-6.05 9.73366,-16.175 13.27131,-22.5 7.73674,-13.83258 8.70165,-15 12.39806,-15 3.91958,0 4.8246,2.83847 3.15983,9.91044 -1.75593,7.45926 -1.70485,19.29744 0.10193,23.62168 3.16854,7.58337 9.17758,3.43549 25.64627,-17.70296 9.98405,-12.81505 12.32568,-14.69041 17.40476,-13.93911 3.25543,0.48155 5.37632,3.06541 7.66227,9.33485 3.18729,8.74144 5.11515,10.7751 10.21453,10.7751 4.68896,0 9.98806,-2.91198 19.55565,-10.74629 7.97553,-6.53065 15.12335,-9.62024 20.78125,-8.98251 5.8342,0.6576 8.66974,2.81612 14.7863,11.25593 2.75,3.79453 7.07321,9.05323 9.60714,11.68601 6.78147,7.046 9.14088,6.79286 24.94049,-2.67585 22.55425,-13.51678 28.01409,-13.3257 42.58186,1.49024 6.2135,6.31935 9.93887,9.31056 12.43725,9.98624 1.96171,0.53054 9.56459,1.3899 16.8953,1.90968 11.8085,0.83728 14.04354,1.29704 19.59771,4.03135 5.77416,2.84261 12.44025,8.77981 12.44025,11.08 0,1.18367 -3.68305,4.9652 -4.83589,4.9652 -0.45974,0 -2.84035,-1.56166 -5.29024,-3.47035 -6.0072,-4.68017 -11.73156,-6.52817 -20.2496,-6.5372 -9.22364,-0.01 -18.99535,-1.62066 -24.43956,-4.02889 -2.58842,-1.14498 -7.41295,-5.12391 -12.00602,-9.90171 -4.22328,-4.39313 -8.96005,-8.45978 -10.52615,-9.03699 -4.25471,-1.56813 -8.89373,0.083 -21.26099,7.56708 -12.24768,7.41176 -17.00716,9.41797 -22.26728,9.3861 -7.99248,-0.0484 -13.14269,-4.21269 -24.08979,-19.47804 -5.14559,-7.17535 -6.66898,-8.5 -9.77527,-8.5 -3.3731,0 -7.46246,2.3384 -17.69762,10.11994 -4.94862,3.76232 -11.00457,7.52446 -13.45768,8.36032 -12.05782,4.10851 -21.49911,-0.84845 -26.15138,-13.73026 -0.74487,-2.0625 -1.64644,-3.75 -2.0035,-3.75 -0.35706,0 -4.18967,4.6125 -8.51692,10.25 -13.64408,17.77538 -20.87815,23.75 -28.75651,23.75 -6.00888,0 -12.23307,-6.94871 -14.1412,-15.78727 -0.68871,-3.19013 -1.07929,-2.68776 -13.21718,17 -6.87913,11.158 -14.7907,23.88727 -17.58128,28.28727 -2.79059,4.4 -9.97364,15.875 -15.96235,25.5 -5.9887,9.625 -13.96775,22.24068 -17.73121,28.03483 -13.36472,20.57611 -23.42449,39.99082 -30.51472,58.89143 -3.7184,9.91226 -7.27079,18.41401 -7.8942,18.89278 -2.05425,1.57766 -4.10195,1.92987 -6.35354,1.09285 z M 534.75099,440.2678 c -2.72413,-1.1042 -3.96076,-2.79212 -5.46609,-7.46084 -1.44895,-4.49384 -0.38808,-12.35965 3.51847,-26.08764 8.04166,-28.25924 13.60049,-48.71427 13.31467,-48.99448 -0.18278,-0.1792 -3.77488,5.14626 -7.98244,11.83434 -19.72554,31.35452 -42.88936,60.88112 -52.19082,66.52691 -10.92112,6.62888 -22.739,0.82732 -29.17845,-14.32412 -1.52936,-3.59846 -3.2069,-6.54265 -3.72787,-6.54265 -0.52097,0 -3.94096,2.85689 -7.59998,6.34864 -16.04423,15.31076 -24.06387,19.89339 -31.11603,17.78051 -9.35936,-2.80413 -10.69838,-12.10263 -6.42676,-44.62915 l 0.65664,-5 -5.35096,7 c -8.99216,11.76335 -24.65066,26.79093 -31.24702,29.98801 -9.72196,4.71197 -17.0009,3.45335 -23.61878,-4.084 -4.20471,-4.78891 -6.6047,-10.50749 -8.65367,-20.61959 -2.18831,-10.79972 -1.47303,-32.88906 1.55884,-48.14058 2.54467,-12.80067 10.33699,-37.38098 16.55617,-52.2252 3.81993,-9.11759 17.56153,-34.76796 28.07551,-52.40637 6.39942,-10.73577 2.43987,-6.93655 -11.97224,11.48744 -21.31963,27.25436 -42.63906,70.60812 -54.18864,110.19439 -7.85544,26.92456 -11.01959,38.37913 -13.89625,50.3059 -3.14586,13.04287 -4.59719,16 -7.85263,16 -2.98413,0 -4.67738,-1.79281 -4.67513,-4.95 0.002,-2.94243 7.23835,-30.54037 12.99214,-49.55 2.16414,-7.15 7.55158,-27.625 11.97207,-45.5 9.17939,-37.11834 10.44886,-41.88278 16.65292,-62.5 10.22302,-33.97291 18.92632,-59.73413 24.81633,-73.45478 3.4342,-7.99987 6.51938,-16.27287 6.85597,-18.38445 0.75345,-4.72682 2.26581,-6.66077 5.20875,-6.66077 6.60455,0 5.89192,7.75537 -2.4785,26.97266 -7.13649,16.38439 -10.32311,25.46279 -19.66622,56.02734 -9.77714,31.98443 -11.28586,37.33058 -10.23972,36.28444 0.52318,-0.52318 4.88514,-7.43871 9.69324,-15.36784 14.46286,-23.85099 32.28692,-45.06652 68.58867,-81.63939 12.83664,-12.93251 16.65314,-16.22831 18.81735,-16.25 3.52901,-0.0354 5.35287,3.04353 3.66792,6.1919 -0.6532,1.22051 -3.98278,5.60801 -7.39907,9.75 -19.18145,23.25602 -46.6173,66.99407 -62.65487,99.88394 -6.75765,13.8586 -15.5316,39.35113 -18.98605,55.16355 -1.95916,8.96789 -2.28584,13.30237 -2.25976,29.9834 0.0327,20.94365 0.62144,24.14669 5.91098,32.16068 3.23846,4.90647 7.04385,5.72556 13.06301,2.81174 5.67579,-2.74761 21.12425,-18.20188 28.44302,-28.45373 12.89494,-18.06273 17.15402,-22.15447 20.74137,-19.92645 4.08571,2.53753 4.31596,5.15565 1.75924,20.00376 -2.66576,15.48142 -4.15262,33.67005 -3.09641,37.87832 0.59004,2.35092 1.04235,2.63042 3.32832,2.05668 3.69439,-0.92724 7.26608,-3.60757 18.76868,-14.08472 10.87136,-9.90219 13.13209,-11.44628 16.75874,-11.44628 3.32495,0 6.12468,3.33326 10.63687,12.6639 8.06461,16.67658 13.39188,16.33708 28.62978,-1.82453 20.18813,-24.06163 44.30514,-61.16906 59.07311,-90.89231 4.61501,-9.28856 7.96938,-18.26023 12.89902,-34.5 16.08951,-53.00389 25.34067,-80.50712 28.1087,-83.56576 2.39842,-2.65022 6.02265,-2.37552 7.97523,0.60449 1.51677,2.31489 1.48578,3.19148 -0.45082,12.75 -4.43003,21.8654 -11.83774,44.03661 -26.55843,79.48918 -5.11302,12.31393 -8.97174,23.7661 -12.55956,37.27503 -2.84843,10.725 -8.54684,31.40968 -12.66312,45.96596 -11.46369,40.53871 -13.20006,49.03404 -10.02216,49.03404 3.30206,0 11.97478,-7.54743 27.41651,-23.85921 27.7392,-29.30214 30.79568,-32.14079 34.60717,-32.14079 4.57492,0 5.44378,2.27778 5.91245,15.5 0.57228,16.14499 4.15712,23.07625 12.51479,24.19725 8.18573,1.09793 18.34251,-3.33314 40.21052,-17.54252 27.0408,-17.57064 32.7999,-18.4622 39.7648,-6.15595 5.6326,9.95238 8.681,14.2318 11.8704,16.66452 4.7002,3.58502 13.037,4.39942 26.8748,2.62533 6.05,-0.77565 13.9942,-1.15878 17.6538,-0.8514 9.0752,0.76223 23.3299,5.5899 35.3462,11.97081 5.5,2.92061 12.363,6.08494 15.2512,7.03185 5.7144,1.87349 7.7284,5.07239 5.1498,8.1794 -2.2929,2.76279 -9.0621,1.0836 -22.7094,-5.63342 -23.6664,-11.64829 -30.2439,-13.02887 -50.6916,-10.63992 -14.0285,1.63898 -22.4578,0.87981 -29.12,-2.62259 -4.3458,-2.2847 -11.7711,-10.8095 -15.9966,-18.36547 -3.885,-6.9471 -5.2013,-7.52819 -10.6831,-4.71618 -1.7601,0.90293 -9.9503,5.90973 -18.2003,11.1262 -8.25,5.21648 -17.95062,10.98904 -21.55694,12.82791 -8.13622,4.1487 -19.03505,6.79565 -24.44306,5.9364 -5.97144,-0.94878 -12.27608,-5.10968 -15.53962,-10.25575 -2.6156,-4.12436 -5.47939,-14.16884 -6.18617,-21.69737 -0.25732,-2.74099 -1.28156,-1.84792 -16.62965,14.5 -28.61638,30.48056 -36.9609,36.50328 -45.67928,32.96938 z m 80.73472,-103.24848 c -0.66,-0.66 -1.2,-2.145 -1.2,-3.3 0,-1.155 0.54,-2.64 1.2,-3.3 2.65742,-2.65742 7.8,-0.7266 7.8,2.92857 0,3.82352 -5.2002,6.27123 -7.8,3.67143 z"
           id="path5784"
           inkscape:connector-curvature="0" />
        <path
           style="fill:#ffffff;stroke:#ffffff"
           d="m -205.14286,587.64789 c -0.86429,-0.86428 -1.57143,-2.70182 -1.57143,-4.08341 0,-3.03253 4.00361,-13.16538 10.8044,-27.34516 6.30027,-13.13618 12.77078,-33.51368 19.05194,-60 9.98293,-42.09595 27.36968,-107.10917 34.49899,-129 8.08911,-24.83796 25.37657,-73.49784 31.64805,-89.08142 6.72253,-16.70433 25.40888,-64.63627 30.08431,-77.16858 2.36028,-6.32664 2.6125,-7.75 1.37329,-7.75 -3.25281,0 -14.61295,6.81451 -48.61719,29.16358 -36.94421,24.28135 -47.5797,31.56234 -51.98587,35.58918 -3.48371,3.18381 -7.2413,2.75311 -7.66233,-0.87826 -0.23712,-2.04515 0.64707,-3.44601 4,-6.33739 9.42813,-8.13029 85.78707,-58.20276 96.55703,-63.31739 12.58951,-5.97874 17.83821,-4.47465 16.98906,4.86845 -0.40434,4.44892 -12.95609,37.98073 -30.2872,80.91183 -9.36235,23.19159 -27.75376,75.14457 -36.59229,103.36772 -3.2498,10.37725 -8.79323,29.95225 -12.31873,43.5 -3.5255,13.54775 -8.63489,33.18228 -11.35419,43.63228 -6.64852,25.5496 -11.50064,46.52196 -10.90178,47.12082 0.56336,0.56336 10.51159,-14.37698 21.79697,-32.7349 4.26492,-6.93774 9.88868,-15.93774 12.49725,-20 2.60857,-4.06225 7.74704,-12.33592 11.41882,-18.38592 3.67179,-6.05 10.26807,-16.85 14.6584,-24 4.39033,-7.15 10.56163,-17.60925 13.71399,-23.24278 6.40045,-11.43812 8.76915,-13.5596 11.77907,-10.54968 1.83406,1.83407 1.84499,2.17844 0.28083,8.85039 -2.01844,8.60967 -1.55701,21.07739 0.91998,24.85776 3.97407,6.06519 10.38738,1.42427 26.38319,-19.09188 10.46795,-13.42614 13.64442,-15.74324 18.13039,-13.22533 1.71798,0.96427 3.6105,3.86534 5.61277,8.60387 4.00641,9.48146 5.77155,11.29765 10.98006,11.29765 4.57646,0 9.90937,-2.93199 19.41108,-10.67202 11.18332,-9.10987 20.02664,-11.5173 26.90406,-7.32413 1.80089,1.098 5.40089,5.03142 8,8.74092 2.59911,3.70951 7.0792,9.16899 9.95577,12.13219 5.0256,5.17695 5.39946,5.36854 9.56057,4.89952 3.04127,-0.34279 8.11209,-2.73505 17.03318,-8.03574 21.69552,-12.89092 25.4844,-12.72932 40.596,1.7315 11.35825,10.86911 12.09988,11.17378 30.22035,12.41488 10.07148,0.68981 13.72944,1.36643 18,3.32948 9.5175,4.37491 14.54613,10.04655 11.81995,13.33139 -1.86,2.24116 -3.78387,1.75877 -8.25753,-2.07052 -5.11234,-4.37598 -11.95357,-6.47521 -21.13414,-6.48502 -9.28832,-0.01 -18.93041,-1.62586 -23.43927,-3.92822 -1.99607,-1.01926 -7.4918,-5.72568 -12.21271,-10.45871 -8.35612,-8.37757 -8.70842,-8.60552 -13.29966,-8.60552 -5.36161,0 -6.95832,0.71257 -21.98164,9.80987 -9.38314,5.68191 -11.65528,6.63629 -16.6614,6.9984 -4.68924,0.33919 -6.56884,-0.0147 -9.83888,-1.85259 -3.95476,-2.2227 -10.60645,-9.7283 -17.00736,-19.19069 -6.59044,-9.74257 -9.94673,-9.32482 -26.62758,3.31429 -10.5295,7.97822 -14.6885,9.92209 -21.21788,9.91698 -7.74469,-0.006 -13.90536,-5.09304 -17.50409,-14.45349 -0.83677,-2.17647 -1.95643,-4.10224 -2.48813,-4.27947 -0.5317,-0.17723 -5.74832,5.67816 -11.59249,13.01198 -12.12435,15.2148 -17.67212,19.8237 -24.67153,20.49625 -4.17103,0.40079 -5.10595,0.0971 -8.28014,-2.68991 -3.62644,-3.18406 -6.74574,-10.10821 -6.74574,-14.97404 0,-2.17834 -0.1879,-2.32956 -1.33184,-1.07187 -0.73251,0.80536 -6.44329,9.78929 -12.69061,19.96429 -6.24733,10.175 -14.04432,22.775 -17.32666,28 -3.28233,5.225 -9.87166,15.8 -14.64294,23.5 -4.77129,7.7 -12.74914,20.3 -17.72856,28 -15.28394,23.63453 -25.00113,42.21037 -32.41726,61.9704 -7.56191,20.14846 -9.94242,23.30646 -14.2907,18.95817 z m 738.7276,-148.93167 c -3.06345,-2.14573 -4.6548,-7.81278 -3.9287,-13.99075 0.69247,-5.89183 2.47529,-12.83705 12.02887,-46.86016 3.68397,-13.1197 6.55683,-24.27789 6.38414,-24.79598 -0.1727,-0.51808 -2.09758,2.11622 -4.27753,5.85401 -5.42789,9.30679 -24.71662,38.11154 -31.86502,47.5855 -9.44747,12.52096 -22.3252,26.44122 -26.98997,29.17496 -10.26235,6.01414 -20.34284,0.75654 -27.25364,-14.21448 -1.84068,-3.9875 -3.8125,-7.25 -4.38182,-7.25 -0.56932,0 -4.3561,3.07925 -8.41507,6.84277 -14.4835,13.42928 -21.61306,18.08466 -27.77356,18.13527 -3.59413,0.0295 -8.419,-4.21258 -9.90195,-8.70595 -1.42133,-4.30667 -0.58994,-23.46872 1.53036,-35.27209 0.74099,-4.125 1.21062,-7.6436 1.04361,-7.81911 -0.167,-0.17552 -3.14665,3.42448 -6.62143,8 -8.49853,11.19067 -24.21563,26.69718 -30.4342,30.02641 -7.44408,3.98534 -11.97937,4.40151 -17.42874,1.59931 -5.90669,-3.03736 -10.47741,-9.28637 -13.25579,-18.12308 -2.01689,-6.4148 -2.25678,-9.21677 -2.24169,-26.18353 0.0182,-20.47785 0.84269,-26.25867 6.59919,-46.27002 8.31595,-28.90882 17.60697,-48.75581 42.15161,-90.04204 2.71783,-4.57163 4.72925,-8.52432 4.46982,-8.78376 -1.3152,-1.31519 -24.96265,28.30573 -33.10137,41.46294 -13.22951,21.38708 -18.43729,31.87175 -31.11001,62.63288 -6.02962,14.63598 -18.47586,56.38312 -24.55399,82.35888 -2.40458,10.2763 -4.73045,13.87603 -7.87742,12.19182 -1.02269,-0.54733 -2.11339,-1.65694 -2.42378,-2.46581 -0.59277,-1.54472 7.05182,-31.33187 12.8538,-50.08489 1.87181,-6.05 8.1002,-29.675 13.84087,-52.5 14.30568,-56.87964 28.51828,-103.22067 39.70065,-129.44633 3.81355,-8.94381 6.93373,-17.45222 6.93373,-18.90757 0,-3.68585 3.44937,-7.01115 5.90789,-5.6954 4.47628,2.39564 3.52802,6.87251 -6.28986,29.69533 -5.5082,12.80448 -11.60043,30.76998 -21.14465,62.35397 -7.75603,25.66647 -9.60376,32.20296 -9.21343,32.59328 0.20479,0.2048 5.1495,-7.60741 10.98823,-17.36046 12.25299,-20.46746 23.14589,-34.81868 42.36075,-55.80963 16.27894,-17.78364 44.80105,-46.42319 46.23284,-46.42319 1.40118,0 4.15823,2.88135 4.15823,4.34571 0,0.66157 -3.17767,5.01693 -7.06149,9.67857 -8.84931,10.6216 -28.40552,38.54051 -37.10761,52.97572 -20.8378,34.56619 -32.78392,59.17026 -39.75871,81.8865 -6.04019,19.67234 -8.09457,30.74096 -8.74447,47.1135 -0.67103,16.90497 1.01154,28.49044 5.16765,35.58232 7.03878,12.01075 17.6577,7.93978 36.47918,-13.98503 3.8984,-4.54116 9.37353,-11.59581 12.16697,-15.67698 9.53276,-13.92724 13.93643,-16.78336 17.4975,-11.34849 1.5912,2.42848 1.56494,3.2227 -0.47112,14.25 -4.02259,21.78628 -5.18015,39.41159 -2.80199,42.66391 1.23177,1.68455 1.68682,1.73507 4.63379,0.51439 4.0546,-1.67946 11.08737,-7.1969 20.37818,-15.98734 3.91717,-3.70619 8.645,-7.51802 10.5063,-8.47073 3.24171,-1.65926 3.49431,-1.65243 6,0.1624 1.4387,1.04203 4.47248,5.72282 6.74172,10.40176 4.2955,8.85683 8.90644,13.89379 12.71869,13.89379 7.7399,0 29.29126,-26.11294 54.46182,-65.98927 20.48666,-32.45589 26.77203,-45.89567 36.71706,-78.51073 11.588,-38.00322 22.15021,-70.21392 24.75721,-75.5 2.61545,-5.30321 6.73296,-6.71155 8.72731,-2.98507 2.98494,5.57741 -7.62358,43.18148 -22.56467,79.98507 -3.68416,9.075 -7.95288,19.65 -9.48605,23.5 -1.53317,3.85 -5.94761,18.7 -9.80988,33 -3.86226,14.3 -9.94352,36.35 -13.51391,49 -8.83985,31.31983 -10.1316,39.5 -6.23754,39.5 3.34225,0 12.38713,-8.10668 34.56106,-30.97617 13.29442,-13.71144 25.09561,-25.22314 26.22487,-25.58155 1.37571,-0.43664 2.72227,0.0174 4.08089,1.37603 1.77087,1.77088 2.05224,3.46234 2.22151,13.35469 0.21465,12.5446 1.9388,18.20557 6.94914,22.81637 2.25023,2.07079 3.66091,2.47637 8.38966,2.41213 10.21009,-0.13872 12.95391,-1.44531 45.34693,-21.59397 20.4996,-12.75082 25.1681,-13.40111 30.6151,-4.26446 7.3575,12.34139 10.308,16.4263 13.7769,19.07375 4.1805,3.19058 3.8284,3.16934 38.438,2.31902 13.1895,-0.32405 13.707,-0.25555 22.5,2.97807 4.95,1.82037 14.175,5.91895 20.5,9.10795 6.325,3.189 12.625,6.11875 14,6.51055 5.2469,1.4951 6.7984,5.43476 2.951,7.4938 -2.6983,1.44409 -6.435,0.20116 -20.451,-6.8025 -23.2135,-11.59957 -30.2229,-13.11759 -49.6163,-10.74527 -14.683,1.79612 -20.7625,1.42331 -28.182,-1.72817 -5.7409,-2.43848 -13.1406,-10.34413 -17.7145,-18.92572 -1.7472,-3.27802 -3.8101,-6.20308 -4.5842,-6.50014 -2.6933,-1.03352 -6.1681,0.69616 -24.4805,12.18591 -21.0445,13.20392 -26.05414,15.82063 -34.3826,17.95923 -7.54466,1.93734 -11.63848,1.93273 -16.32202,-0.0184 -9.16911,-3.81974 -14.90987,-13.63246 -15.95598,-27.27362 l -0.56154,-7.32245 -23.60018,24.00922 c -15.28519,15.55011 -25.08354,24.73616 -27.81034,26.07245 -4.96923,2.43521 -10.00382,2.65229 -12.99081,0.56013 z m 81.71324,-103.47398 c -1.53436,-2.86697 2.14368,-6.54501 5.01065,-5.01065 2.21741,1.18672 2.59155,3.97326 0.77708,5.78773 -1.81447,1.81447 -4.60101,1.44033 -5.78773,-0.77708 z"
           id="path5782"
           inkscape:connector-curvature="0" />
        <path
           style="fill:#ffffff;stroke:#ffffff"
           d="m -205.04762,587.55265 c -2.60008,-2.60007 0.84829,-13.49355 10.07694,-31.83333 5.00535,-9.94696 13.18339,-35.73385 18.24224,-57.52117 10.06349,-43.34122 29.94682,-116.79148 37.89291,-139.97883 14.04206,-40.97583 25.19124,-71.74592 33.87864,-93.5 16.74716,-41.93651 27.2426,-69.2591 27.2426,-70.92018 0,-2.26436 -1.2008,-2.00743 -9.01895,1.92972 -7.90558,3.98119 -81.19839,52.14024 -90.70958,59.60323 -3.4257,2.68797 -6.67236,4.88723 -7.21482,4.88723 -0.54246,0 -1.4505,-0.8674 -2.01787,-1.92754 -2.22443,-4.15639 1.77788,-7.24551 54.45344,-42.02893 46.71461,-30.84721 56.98598,-35.82191 61.07552,-29.58049 2.27198,3.46747 0.9781,8.68346 -7.52057,30.31762 -3.82843,9.74564 -12.802,32.56934 -19.94126,50.71934 -12.99567,33.03861 -34.75027,94.44798 -41.44789,117 -4.67016,15.72525 -26.81124,100.65237 -30.19706,115.82769 -1.4514,6.50523 -2.40205,12.06455 -2.11255,12.35405 0.80249,0.8025 28.20777,-41.6685 45.60884,-70.68174 3.13376,-5.225 9.08949,-14.9 13.23496,-21.5 4.14546,-6.6 10.58008,-17.4 14.29915,-24 7.70849,-13.67979 9.08186,-15.5 11.69501,-15.5 2.92514,0 3.21645,2.47464 1.32293,11.23836 -1.96361,9.08817 -1.62116,16.61631 1.0079,22.15665 4.15677,8.75974 10.34054,4.69073 28.34965,-18.65451 8.63079,-11.18811 10.38689,-12.7405 14.41242,-12.7405 3.20042,0 5.00997,2.20934 8.12522,9.92032 3.08261,7.63022 4.82203,9.75088 8.69574,10.60169 4.6074,1.01196 9.30924,-1.17875 20.50172,-9.55228 20.71079,-15.49455 25.58536,-14.71433 40.89805,6.54608 6.21101,8.62348 10.68818,11.85642 15.38177,11.10707 1.85998,-0.29695 8.75008,-3.76092 15.31134,-7.69772 22.22421,-13.33467 27.69444,-13.26025 40.94374,0.55704 10.13244,10.56681 12.5325,11.6511 27.86315,12.58791 6.875,0.42011 13.85,1.09058 15.5,1.48992 8.23827,1.99389 18.04104,9.39204 17.33088,13.07961 -0.56701,2.94423 -3.36299,2.71263 -8.00776,-0.66333 -7.13552,-5.18631 -10.41258,-6.10236 -25.00284,-6.98912 -17.21867,-1.04652 -20.56193,-2.39978 -29.73029,-12.03406 -13.51069,-14.19729 -15.55918,-14.25061 -37.08234,-0.96521 -11.29804,6.97383 -17.33358,8.83022 -23.096,7.10376 -5.42971,-1.62678 -9.29495,-5.29299 -17.3196,-16.42777 -8.1512,-11.31039 -10.65856,-12.83954 -16.63444,-10.1448 -2.18446,0.98506 -8.35607,5.11073 -13.71468,9.16815 -18.80795,14.24097 -29.55565,13.57504 -36.88358,-2.28532 -1.91321,-4.14088 -3.88762,-7.38781 -4.38759,-7.21541 -0.49997,0.17241 -5.76065,6.36306 -11.6904,13.757 -12.42771,15.49641 -18.27902,20.32194 -24.81248,20.46264 -7.27146,0.1566 -12.50089,-6.48978 -13.69534,-17.40617 -0.15045,-1.375 -0.72354,-2.42972 -1.27354,-2.34381 -0.55,0.0859 -3.87441,4.8109 -7.38757,10.5 -3.51316,5.68909 -10.98462,17.76881 -16.60323,26.84381 -5.61861,9.075 -14.39274,23.25 -19.49806,31.5 -5.10531,8.25 -13.67398,21.75 -19.04147,30 -15.649,24.05298 -26.0822,43.83262 -33.45216,63.41979 -3.60494,9.58088 -7.05123,18.01838 -7.65842,18.75 -1.1556,1.3924 -5.04662,1.80934 -6.19242,0.66354 z m 737.8425,-150.3232 c -2.36674,-2.61522 -3.06461,-10.50952 -1.59114,-17.99902 0.64591,-3.28309 4.98831,-19.59117 9.64979,-36.24018 4.66147,-16.64901 8.34856,-30.9379 8.19353,-31.75309 -0.15503,-0.81519 -3.16465,3.23481 -6.68805,9 -16.86095,27.58884 -34.23622,51.61842 -47.56897,65.78676 -9.00728,9.57179 -11.6303,11.1954 -18.08664,11.1954 -8.21961,0 -13.60397,-4.83839 -19.25582,-17.30328 -1.67004,-3.6832 -3.44298,-6.69672 -3.93986,-6.69672 -0.49688,0 -5.5876,4.31368 -11.31271,9.58595 -12.51934,11.52909 -18.71427,15.39158 -24.70705,15.40467 -3.38065,0.007 -4.82619,-0.56081 -6.77413,-2.66268 -1.36201,-1.46964 -2.75526,-3.7832 -3.09611,-5.14125 -0.8535,-3.40061 0.31212,-27.39489 1.67581,-34.49642 2.0641,-10.74898 1.17577,-11.10261 -5.50198,-2.19027 -9.33218,12.45504 -26.18058,28.9758 -32.59609,31.96222 -9.47541,4.41081 -15.68871,3.11877 -22.3335,-4.64417 -9.8946,-11.55962 -11.94947,-41.4902 -4.98486,-72.60792 2.93854,-13.12933 10.44938,-35.68804 16.32001,-49.01695 4.44481,-10.09166 26.58821,-50.05773 34.88343,-62.96021 1.31954,-2.05244 1.29789,-2.20578 -0.22871,-1.61997 -2.21878,0.85143 -13.69119,14.14106 -24.07372,27.887 -7.40533,9.80427 -23.73927,36.0413 -27.39233,44 -12.81053,27.9095 -19.79402,45.67462 -24.56884,62.5 -1.79495,6.325 -5.09468,17.8 -7.33274,25.5 -2.23806,7.7 -5.47675,19.625 -7.19709,26.5 -1.72033,6.875 -3.73953,13.12403 -4.4871,13.88674 -1.58504,1.61715 -4.29043,0.86023 -5.17627,-1.44822 -0.64402,-1.67829 7.37475,-32.98044 13.24503,-51.70343 1.87291,-5.97356 7.73124,-28.27018 13.0185,-49.54805 13.63727,-54.88125 28.98856,-104.92425 40.07533,-130.6398 3.56803,-8.27598 6.79246,-16.80108 7.16539,-18.94467 0.81822,-4.7031 3.21045,-6.63363 5.6802,-4.58391 2.728,2.26404 1.38287,8.12173 -5.51163,24.00159 -7.09369,16.33868 -11.19053,28.03401 -20.66043,58.97975 -9.43131,30.81966 -12.41298,41.33295 -12.11357,42.71211 0.14473,0.66666 5.28728,-7.23482 11.42788,-17.55884 17.02889,-28.63019 30.86672,-45.47776 69.76804,-84.94262 13.1891,-13.38016 18.57026,-18.21168 20.04771,-18 4.06948,0.58306 2.86237,4.2405 -4.2607,12.9096 -7.82675,9.52552 -27.08863,36.95539 -35.37781,50.37975 -9.4009,15.2248 -25.80366,44.98163 -30.45451,55.2486 -5.98482,13.21179 -14.78703,40.51579 -17.53286,54.38599 -2.70942,13.68629 -3.21766,37.90324 -0.98355,46.86541 2.78795,11.18396 8.15678,18 14.17816,18 7.62998,0 24.32176,-15.4011 38.88733,-35.88042 8.21314,-11.54773 11.09683,-14.39843 14.11347,-13.95196 4.30711,0.63747 4.58121,2.80357 2.15896,17.06156 -1.23999,7.29895 -2.72207,18.35488 -3.29349,24.56874 -2.09974,22.83327 2.18993,23.77693 22.91348,5.04058 5.68092,-5.13617 11.83105,-10.22204 13.66695,-11.30193 5.10563,-3.00315 7.42526,-1.18355 13.19546,10.35103 9.48045,18.95133 14.27132,18.38678 32.99084,-3.8876 10.40517,-12.38112 33.83336,-46.56449 44.63567,-65.12654 12.86442,-22.10547 18.52501,-35.08636 25.83687,-59.24925 9.03114,-29.84442 19.03637,-61.28423 22.90625,-71.97915 3.41247,-9.43083 6.03594,-12.72021 8.74754,-10.96792 6.27363,4.05416 -6.27292,48.14513 -28.21006,99.13556 -3.51924,8.18009 -6.23429,16.96029 -12.58146,40.6873 -1.76556,6.6 -7.05128,25.725 -11.74606,42.5 -5.15572,18.42203 -8.7347,33.17299 -9.03782,37.25 -0.48977,6.58713 -0.44434,6.74991 1.88249,6.74626 5.24673,-0.008 12.48001,-6.58042 45.94547,-41.74626 8.42468,-8.85274 14.29536,-14.2442 15.49993,-14.23469 4.43589,0.035 4.91292,1.31044 5.4967,14.69622 0.44806,10.27373 0.9679,13.57504 2.64359,16.78847 3.62434,6.9503 5.48882,8 14.20963,8 6.87533,0 8.48882,-0.39569 15.14218,-3.71348 4.09578,-2.04241 13.52187,-7.62436 20.94687,-12.40433 25.0949,-16.15526 31.3751,-18.29047 36.3627,-12.363 1.3973,1.66055 4.0023,5.76195 5.7891,9.11422 7.6174,14.29181 14.2077,17.73281 31.1354,16.25698 5.6171,-0.48971 15.1628,-0.86256 21.2128,-0.82855 13.0155,0.0732 20.7564,2.35291 37,10.89664 5.5,2.89287 12.3232,6.02127 15.1627,6.95202 5.457,1.78872 7.167,3.88483 5.1509,6.31405 -2.0015,2.41175 -7.0216,0.89934 -23.7465,-7.15418 -20.8219,-10.02637 -25.1086,-11.06888 -41.0671,-9.98736 -19.9565,1.35246 -27.9122,1.13664 -33.2018,-0.90069 -5.8376,-2.2484 -13.9763,-10.77811 -18.6429,-19.53878 -1.8397,-3.45346 -3.9852,-6.52479 -4.768,-6.82516 -2.2706,-0.8713 -6.756,1.43203 -24.3582,12.50815 -25.88399,16.28741 -32.27876,19.09458 -43.62182,19.14902 -13.23424,0.0635 -22.35953,-11.84479 -22.39541,-29.22555 -0.009,-4.14894 -0.38702,-5.75 -1.35917,-5.75 -0.74102,0 -8.22052,7.3125 -16.62111,16.25 -28.15455,29.954 -33.96114,34.75 -42.07238,34.75 -3.37135,0 -5.1442,-0.54693 -6.45004,-1.98987 z m 83.92555,-101.43421 c -2.01363,-1.47239 -1.38107,-4.27554 1.18721,-5.26108 1.01781,-0.39057 2.16851,0.0457 2.95399,1.11988 2.41562,3.30355 -0.83765,6.55682 -4.1412,4.1412 z"
           id="path5780"
           inkscape:connector-curvature="0" />
        <path
           style="fill:#ffffff;stroke:#ffffff"
           d="m -204.51429,587.01932 c -2.68269,-2.68269 -0.25709,-10.59396 8.83476,-28.81518 6.03455,-12.094 13.52048,-35.40573 19.49259,-60.70134 4.3759,-18.53469 13.81891,-55.25956 23.98582,-93.28348 9.22046,-34.48421 28.80233,-91.50184 48.93955,-142.5 27.07005,-68.5558 27.02208,-68.4252 25.63901,-69.80827 -0.57401,-0.57401 -4.50523,0.96161 -10.26112,4.00824 -10.61437,5.61825 -80.35597,51.52232 -89.06648,58.62374 -5.70699,4.65274 -8.08034,5.5917 -9.26966,3.66734 -2.1311,-3.44819 3.61164,-8.19706 34.30422,-28.36731 10.28572,-6.75947 27.33672,-17.9699 37.89111,-24.91206 19.2555,-12.66532 27.55304,-17.38134 34.59822,-19.66436 3.21584,-1.0421 4.1599,-0.98385 6.25,0.38563 4.7453,3.10924 4.22761,5.03737 -13.84539,51.56705 -5.23394,13.475 -12.44123,31.7 -16.01619,40.5 -7.84968,19.32247 -26.70292,72.85182 -34.84875,98.9448 -3.25285,10.41964 -8.78977,29.99464 -12.30426,43.5 -3.51448,13.50536 -8.61774,33.1052 -11.34056,43.5552 -9.29404,35.66987 -13.20218,54.22288 -10.83076,51.41667 5.03802,-5.96174 68.60834,-108.59791 76.89105,-124.14289 4.60046,-8.63413 7.07393,-10.88527 9.40216,-8.55703 1.216,1.21599 1.18629,2.37475 -0.214,8.34762 -2.17112,9.26087 -1.56491,21.43626 1.25614,25.22901 4.80499,6.46004 10.11337,3.13149 25.29691,-15.86211 11.19391,-14.00281 14.14529,-16.93127 17.06382,-16.93127 2.46482,0 5.58157,3.94061 7.83612,9.90744 5.55398,14.69902 13.34666,14.87974 30.87674,0.71609 11.44087,-9.24381 19.83179,-11.74926 26.38482,-7.87829 1.62495,0.95988 6.54914,6.58225 10.94264,12.49415 12.29316,16.54168 14.99483,17.15318 31.49524,7.12861 24.10741,-14.64608 28.21664,-14.67509 42.75495,-0.30189 5.8436,5.77724 10.43117,9.42133 13.08067,10.3905 2.24435,0.82096 10.0988,1.90409 17.45434,2.40695 12.29803,0.84075 13.89963,1.18463 19.91238,4.27537 7.68078,3.94815 11.24156,7.9179 9.25224,10.31489 -1.76835,2.13072 -2.16078,2.02284 -7.1476,-1.96487 -5.53753,-4.42809 -12.29463,-6.48686 -21.32223,-6.4965 -8.88179,-0.01 -18.89386,-1.60337 -22.95195,-3.65384 -1.7141,-0.8661 -7.21843,-5.5716 -12.23185,-10.45667 -8.83541,-8.60922 -9.25883,-8.88194 -13.78984,-8.88194 -5.10903,0 -8.29204,1.38662 -21.59486,9.40744 -11.19799,6.75173 -13.25747,7.59256 -18.59671,7.59256 -7.41274,0 -12.19035,-3.67409 -21.45579,-16.5 -2.38392,-3.3 -5.45654,-7.2375 -6.82804,-8.75 -4.58154,-5.05255 -10.61817,-3.28104 -23.05159,6.7647 -9.04788,7.31035 -15.65353,10.4853 -21.81521,10.4853 -7.32811,0 -10.92565,-2.82272 -15.54958,-12.20061 -2.29253,-4.64953 -4.27359,-7.50367 -5,-7.20356 -0.66169,0.27338 -4.35308,4.6153 -8.20308,9.64872 -14.29642,18.69086 -21.32211,24.75545 -28.67862,24.75545 -6.22222,0 -10.24149,-4.78465 -12.268,-14.60415 -0.57936,-2.80729 -1.50338,-5.19723 -2.05338,-5.31099 -0.93622,-0.19363 -4.53315,5.3888 -27.97365,43.41514 -14.12272,22.91058 -28.28394,45.52029 -38.20635,61 -14.10021,21.9974 -23.54807,40.23374 -30.27541,58.43785 -7.11829,19.26202 -9.27606,22.43068 -12.84459,18.86215 z M 533.45374,436.91263 c -4.78139,-5.11918 -3.97325,-12.48803 4.70435,-42.89554 10.04527,-35.2 12.30731,-43.75871 11.89344,-45.00032 -0.41872,-1.25615 -1.07299,-0.34162 -9.80307,13.70255 -22.45687,36.12662 -44.72855,65.22461 -54.82293,71.62628 -10.46556,6.63706 -20.92113,1.09397 -27.60632,-14.63569 -1.61861,-3.80844 -3.36826,-6.49059 -4.23403,-6.49059 -0.81152,0 -5.37338,3.62721 -10.13748,8.06047 -19.42019,18.07159 -29.12066,21.14274 -34.4893,10.91927 -1.58852,-3.02502 -1.75441,-5.1132 -1.26941,-15.97974 0.30684,-6.875 1.2645,-16.48141 2.12811,-21.34758 0.86362,-4.86617 1.4042,-9.34566 1.20128,-9.95441 -0.20292,-0.60876 -3.61621,3.23247 -7.58509,8.53606 -14.26864,19.0671 -29.84409,32.69411 -39.16964,34.26966 -8.83185,1.49213 -17.16259,-5.92812 -21.25267,-18.92993 -1.97747,-6.28607 -2.22339,-9.18963 -2.20837,-26.0738 0.0129,-14.4778 0.44734,-21.02309 1.82541,-27.5 5.61534,-26.39213 16.36225,-55.15861 28.47732,-76.22587 3.24957,-5.65077 9.16295,-16.10617 13.14085,-23.23422 3.97789,-7.12806 8.46335,-14.77806 9.96767,-17 5.45116,-8.05158 3.90026,-7.86502 -4.17951,0.50277 -25.2686,26.16934 -45.93381,60.73725 -64.6316,108.11309 -4.08545,10.35159 -17.44172,56.60309 -22.12298,76.60977 -1.19239,5.09604 -2.81688,9.91442 -3.60996,10.70751 -1.59975,1.59974 -3.94664,1.10935 -4.75348,-0.99326 -0.55968,-1.45849 7.26071,-31.77159 12.89413,-49.97979 1.87181,-6.05 8.09306,-29.675 13.825,-52.5 5.73194,-22.825 12.24504,-47.35 14.47354,-54.5 2.2285,-7.15 7.26494,-23.277 11.19209,-35.83777 3.92714,-12.56078 10.05688,-29.61811 13.62164,-37.90519 3.56475,-8.28708 6.8572,-17.07915 7.31656,-19.53794 1.18807,-6.35943 5.1194,-8.04878 6.44447,-2.76928 0.68722,2.7381 -1.18509,8.27462 -9.14769,27.05018 -6.12929,14.45267 -20.03508,57.31394 -29.76869,91.75489 -2.36308,8.36141 -1.46822,10.40236 1.79301,4.08944 7.10375,-13.75103 21.95745,-37.11739 30.73188,-48.34433 5.37317,-6.875 15.55731,-18.75919 22.63142,-26.40932 16.58443,-17.93483 43.99852,-45.59068 45.19212,-45.59068 0.50876,0 1.48334,0.67275 2.16575,1.49499 1.49579,1.80233 0.50637,3.49344 -8.4865,14.50501 -17.18727,21.04542 -37.79139,53.4228 -57.76083,90.76556 -8.95845,16.75226 -18.78479,44.37167 -22.85311,64.23444 -2.60208,12.70418 -3.55403,34.59003 -1.94402,44.69427 3.34421,20.98788 11.98644,27.50207 24.78872,18.6848 7.14802,-4.92303 20.75909,-19.63728 28.53702,-30.84996 7.16861,-10.33427 11.86914,-15.52911 14.05144,-15.52911 0.84072,0 2.28416,0.75559 3.20765,1.67908 1.85304,1.85304 1.86251,1.71499 -1.39402,20.32092 -1.10705,6.325 -2.32989,16.54539 -2.71743,22.71198 -0.60946,9.69794 -0.47225,11.56661 1.01611,13.83813 1.3795,2.10539 2.23088,2.4981 4.29344,1.98044 3.82035,-0.95885 9.68224,-5.32784 19.96591,-14.88102 15.60154,-14.49329 16.92856,-14.46341 24.50887,0.5519 3.58409,7.09948 5.78666,10.25087 8.21232,11.75 6.41392,3.96402 9.6125,2.30644 21.6444,-11.21668 18.89926,-21.24162 45.19468,-61.18372 60.72168,-92.23475 5.36082,-10.72062 8.22234,-18.61079 16.32011,-45 11.60245,-37.81038 19.87237,-63.16909 22.74668,-69.75 1.66988,-3.82328 2.55617,-4.75 4.54278,-4.75 4.5894,0 4.51815,2.91762 -0.57387,23.5 -4.31824,17.45469 -9.84658,33.83606 -18.97532,56.22696 -11.80465,28.95436 -12.29534,30.3647 -18.26491,52.4973 -3.00781,11.15166 -8.25472,30.17574 -11.6598,42.27574 -12.0451,42.80243 -13.04434,47.63875 -10.53718,51 1.48323,1.98851 1.51854,1.98599 6.14731,-0.43905 3.15164,-1.65115 12.45855,-10.48481 28.81111,-27.34608 13.28558,-13.69887 25.33345,-25.51952 26.77306,-26.2681 2.15341,-1.11976 2.93242,-1.13077 4.39386,-0.0621 1.50273,1.09882 1.80641,3.08109 1.97128,12.86742 0.17352,10.29998 0.48949,12.17064 2.88157,17.05988 3.57332,7.30359 6.50164,9.1675 14.19016,9.03218 8.64158,-0.15209 15.31968,-3.18964 37.62906,-17.11574 21.5058,-13.42445 28.2127,-16.42471 32.0844,-14.35264 1.3285,0.711 4.8492,5.35592 7.8238,10.32205 6.1215,10.21985 12.4322,16.43466 17.6899,17.42101 1.955,0.36675 8.7664,0.26688 15.1365,-0.22195 20.9589,-1.60834 29.3898,-1.06185 39.582,2.56568 4.95,1.76178 13.275,5.47625 18.5,8.2544 5.225,2.77815 11.75,5.81894 14.5,6.75731 5.4251,1.85117 7.4072,5.28566 3.725,6.45435 -2.5389,0.80582 -7.5296,-1.05946 -21.2329,-7.93577 -21.7922,-10.93536 -28.3965,-12.29511 -48.5725,-10.00054 -25.8321,2.93782 -34.5172,-1.21523 -45.4691,-21.74227 -4.6147,-8.64933 -5.2068,-8.50026 -30.9733,7.79707 -22.40867,14.17347 -32.08382,18.45289 -41.71942,18.45289 -12.15643,0 -20.78731,-11.0842 -21.99729,-28.25 -0.30045,-4.2625 -0.87326,-7.75 -1.2729,-7.75 -0.39964,0 -10.22236,9.83626 -21.82825,21.85835 -22.8111,23.62912 -29.45359,29.0864 -36.33403,29.85101 -3.66893,0.40772 -4.67919,0.10178 -6.65728,-2.01605 z m 82.9199,-102.08736 c -0.89518,-1.07862 -0.77742,-1.7736 0.52041,-3.07143 1.48795,-1.48795 1.84608,-1.50867 3.17126,-0.18349 1.70115,1.70115 0.98732,4.64897 -1.12577,4.64897 -0.77492,0 -1.92957,-0.62732 -2.5659,-1.39405 z"
           id="path5778"
           inkscape:connector-curvature="0" />
        <path
           style="fill:#ffffff;stroke:#ffffff"
           d="m -204.71429,583.37436 c 0,-4.14224 3.6849,-13.6275 10.74361,-27.65504 5.11207,-10.15905 13.1511,-35.69332 18.73255,-59.5 6.39224,-27.26495 26.70175,-104.2763 31.91025,-121 2.48376,-7.975 6.59485,-20.35 9.13575,-27.5 2.54091,-7.15 7.55738,-21.55 11.14773,-32 3.59034,-10.45 12.04379,-32.95 18.78544,-50 21.38759,-54.09036 27.54467,-70.27777 27.54467,-72.41692 0,-2.93885 -2.37184,-2.64929 -10,1.22084 -7.45459,3.78207 -76.78395,49.22408 -87.89748,57.61251 -4.06862,3.07096 -8.01893,6.03357 -8.77847,6.58357 -1.92697,1.39536 -3.51007,-1.2839 -2.20238,-3.72735 1.54418,-2.88533 13.34103,-11.19899 53.26319,-37.5365 45.82824,-30.23388 55.51716,-35.19128 60.00598,-30.70245 3.25135,3.25134 2.40856,5.75352 -26.93435,79.9663 -11.9972,30.3428 -33.76744,91.54931 -40.94976,115.12926 -6.93277,22.76071 -34.50673,130.28922 -34.50673,134.56382 0,2.60159 2.77988,-0.91146 12.22013,-15.44308 5.80612,-8.9375 13.44804,-20.975 16.98204,-26.75 3.534,-5.775 9.79977,-15.9 13.92393,-22.5 20.40582,-32.65597 29.10947,-46.97234 34.85537,-57.33255 3.45685,-6.2329 6.93044,-11.58015 7.71908,-11.88278 3.12589,-1.19952 3.67857,1.39389 1.96194,9.20624 -2.06317,9.38939 -2.08928,13.70895 -0.12289,20.33048 1.74152,5.86433 5.01099,8.77341 8.58532,7.63896 3.60802,-1.14514 11.53965,-9.19931 20.64145,-20.96035 9.95063,-12.85788 11.63286,-14.5 14.8542,-14.5 3.07928,0 5.14165,2.46558 8.05767,9.633 5.89175,14.48158 13.09927,14.72544 30.65085,1.03703 10.39116,-8.10403 14.07817,-9.99126 19.71288,-10.09025 5.96134,-0.10471 8.93458,1.95115 14.74971,10.19879 7.3409,10.41165 13.97522,17.08707 17.67091,17.78039 4.02703,0.75548 7.4768,-0.66965 20.14573,-8.32236 14.22639,-8.59351 21.4,-10.70473 27.9331,-8.22085 1.4694,0.55866 6.85076,5.05157 11.95858,9.98425 5.10782,4.93268 10.57239,9.47758 12.14348,10.09979 1.57108,0.62221 8.75025,1.50988 15.9537,1.9726 14.6482,0.94096 21.52456,2.92535 27.65282,7.98011 4.02332,3.31855 5.01837,6.9475 1.90499,6.9475 -1.01476,0 -2.66,-0.90055 -3.6561,-2.00122 -0.99609,-1.10068 -4.30117,-3.17923 -7.34461,-4.619 -4.7223,-2.23401 -7.54784,-2.73552 -19.27362,-3.4209 -17.36807,-1.01517 -19.94236,-2.09769 -30.28731,-12.73611 C 91.42854,396.61 91.6539,396.59282 61.78571,413.72661 c -14.63151,8.39331 -21.25738,5.21472 -37.24568,-17.8677 -6.15323,-8.88346 -10.78968,-8.46876 -24.81141,2.21922 -4.9814,3.79704 -10.85233,7.81957 -13.04651,8.93896 -12.09615,6.171 -20.79786,2.49615 -26.32282,-11.11649 -1.26823,-3.1247 -2.90631,-5.68128 -3.64017,-5.68128 -0.73387,0 -5.59217,5.34556 -10.79622,11.87903 -11.90643,14.94801 -15.84861,18.88461 -21.34714,21.31686 -9.53468,4.21765 -15.41207,-1.23172 -17.8069,-16.5101 -0.75588,-4.82231 -2.08477,-4.39632 -5.87583,1.88357 -5.67522,9.40102 -23.94855,38.98706 -31.14765,50.43064 -3.97902,6.325 -10.59371,16.9 -14.69931,23.5 -4.1056,6.6 -11.50436,18.3 -16.4417,26 -14.5193,22.64352 -23.73526,40.45075 -31.10718,60.1058 -6.31908,16.84798 -6.87226,17.9127 -9.46148,18.21062 -2.59214,0.29826 -2.75,0.0881 -2.75,-3.66138 z M 533.21588,436.63518 c -2.04845,-2.46823 -2.28623,-12.16773 -0.48824,-19.91586 0.89341,-3.85 5.46732,-20.61323 10.16424,-37.25163 4.69692,-16.63839 8.37589,-31.03839 8.1755,-32 -0.44732,-2.1465 -2.3374,0.48054 -15.10545,20.99528 -14.79166,23.76611 -25.82065,38.97375 -39.64677,54.66807 -9.36857,10.63445 -13.06232,13.08828 -19.70183,13.08828 -4.90486,0 -5.76166,-0.3589 -9.84717,-4.12479 -2.96449,-2.73256 -5.71911,-6.78288 -8.1612,-12 -2.02749,-4.33137 -4.23209,-7.87521 -4.89913,-7.87521 -0.66703,0 -5.42193,3.87685 -10.56645,8.61523 -18.12845,16.69727 -26.54105,20.11031 -32.40156,13.14549 l -2.72567,-3.23928 0.57602,-14.51072 c 0.31682,-7.9809 1.27394,-18.31765 2.12695,-22.97056 0.88857,-4.84695 1.17649,-8.83426 0.67418,-9.33657 -0.50231,-0.50231 -3.97113,3.29468 -8.12248,8.89094 -9.71144,13.09156 -24.96177,28.23151 -31.92745,31.69636 -16.42388,8.16952 -27.28303,-2.82463 -30.12278,-30.49728 -3.14035,-30.60188 9.14135,-77.30429 30.01461,-114.13359 3.16704,-5.58801 8.91008,-15.78502 12.7623,-22.66002 3.85223,-6.875 9.30415,-16.07723 12.11539,-20.44941 2.81124,-4.37217 4.8587,-8.19717 4.54991,-8.5 -0.98422,-0.96523 -18.54028,18.07691 -28.17314,30.55795 -14.74863,19.1094 -27.02594,40.43567 -38.29591,66.5218 -5.37734,12.44669 -11.1262,26.84669 -12.77526,32 -4.72062,14.75195 -12.74592,42.84828 -17.38322,60.8581 -3.31012,12.85548 -4.63181,16.56236 -5.99858,16.82391 -0.96417,0.1845 -2.03869,-0.40895 -2.38782,-1.31878 -0.6908,-1.8002 5.32229,-25.46401 12.32245,-48.49357 2.42412,-7.975 8.70831,-31.825 13.96487,-53 13.47468,-54.28 28.78494,-104.17897 39.9381,-130.16561 3.61973,-8.43392 6.89396,-17.13439 7.27605,-19.33439 0.5349,-3.0798 1.14845,-4 2.66705,-4 3.85833,0 2.40492,7.56221 -4.51654,23.5 -6.99485,16.10679 -12.1136,30.74049 -21.16241,60.5 -9.68687,31.85796 -12.93123,43.82154 -12.61018,46.5 0.25948,2.1648 0.68154,1.76255 3.14783,-3 7.31334,-14.12253 23.38603,-39.62223 31.68192,-50.26411 15.98276,-20.50252 64.78261,-71.73589 68.32853,-71.73589 3.2467,0 1.43627,4.01921 -5.70199,12.65861 -7.22895,8.74915 -22.92879,30.84157 -32.22159,45.34139 -5.87496,9.16688 -24.27993,41.65732 -29.43875,51.96846 -8.42103,16.83147 -17.44379,43.38811 -21.24542,62.53154 -2.65481,13.36856 -3.12647,37.67924 -0.90216,46.5 1.66692,6.61034 5.16204,13.83599 7.88097,16.29274 2.81029,2.53932 8.1803,3.17357 12.29904,1.45265 8.00611,-3.34516 23.84386,-19.55029 35.56541,-36.3904 2.97362,-4.27213 6.37626,-8.7997 7.56143,-10.06125 2.54215,-2.70599 6.59205,-3.01547 7.52843,-0.57529 0.36269,0.94514 -0.33821,7.58264 -1.55754,14.75 -1.21933,7.16735 -2.7044,18.21575 -3.30015,24.552 -0.9279,9.86893 -0.85978,12.0551 0.47513,15.25 1.29836,3.10742 2.0489,3.72955 4.49932,3.72955 3.59539,0 11.25982,-5.51298 23.37729,-16.81516 13.02595,-12.14952 14.86669,-11.98983 21.36288,1.85333 6.1331,13.06942 11.71458,16.81276 18.92087,12.68968 13.27699,-7.59644 52.71893,-64.03852 72.71898,-104.06209 5.46673,-10.93986 8.34849,-18.57632 13.77395,-36.5 8.83638,-29.19204 19.40435,-62.39551 23.18225,-72.83626 3.16528,-8.74768 4.80771,-10.93378 7.4522,-9.91899 5.64329,2.16553 -7.42644,47.42909 -26.89558,93.14573 -5.38361,12.64158 -7.94797,20.64821 -14.71482,45.94376 -1.76558,6.6 -7.06928,25.725 -11.786,42.5 -6.85859,24.39255 -8.59139,31.90171 -8.65342,37.5 -0.0748,6.75557 0.0102,7.01025 2.43527,7.29354 4.47048,0.52222 11.2563,-5.28565 36.02853,-30.8362 13.3084,-13.72654 24.95344,-24.95734 25.87786,-24.95734 3.37818,0 4.08078,2.16684 4.08078,12.58517 0,12.38366 1.84924,18.90819 6.68709,23.5936 3.2813,3.17791 3.76122,3.321 11.1211,3.31593 9.55581,-0.007 14.33848,-2.10999 35.70261,-15.70195 18.3263,-11.65928 26.3891,-15.79275 30.8057,-15.79275 3.9983,0 4.9817,1.01183 10.6917,11 8.8842,15.54079 15.0977,18.88833 32.279,17.39039 5.6171,-0.48971 14.9378,-0.89039 20.7128,-0.89039 12.7701,0 20.0559,2.11284 36.8348,10.68184 6.2342,3.18379 13.102,6.31816 15.2619,6.96528 4.565,1.36771 6.1279,2.87149 4.9556,4.76825 -1.3719,2.21979 -6.9021,0.53017 -20.7464,-6.33854 -23.1041,-11.46285 -29.6888,-12.91821 -48.8059,-10.78701 -26.0323,2.90211 -33.4163,-0.25753 -44.9402,-19.22989 -2.3184,-3.81704 -4.9292,-7.39033 -5.8016,-7.94065 -2.261,-1.42619 -7.5512,1.17469 -24.739,12.16269 -21.22728,13.57038 -30.8587,18.16444 -39.60614,18.89162 -9.10428,0.75685 -13.17912,-0.61127 -18.26981,-6.134 -4.58257,-4.97152 -6.18102,-9.66455 -7.05604,-20.71656 -0.3343,-4.22233 -0.97149,-8.04064 -1.41598,-8.48513 -0.44449,-0.4445 -10.88792,9.59147 -23.20763,22.30214 -12.3197,12.71067 -24.59079,24.51648 -27.26908,26.23513 -5.58651,3.58486 -12.95094,4.32818 -15.26435,1.54069 z m 84.14057,-101.37214 c -1.6558,-1.02334 -0.6916,-4.04372 1.29089,-4.04372 0.78341,0 1.67079,0.6421 1.97194,1.42689 0.72568,1.89109 -1.52127,3.69317 -3.26283,2.61683 z"
           id="path5776"
           inkscape:connector-curvature="0" />
        <path
           style="fill:#ffffff;stroke:#ffffff"
           d="m -203.85108,585.5545 c -1.66255,-2.00325 1.00464,-9.85513 9.07131,-26.70481 6.94408,-14.50482 13.64478,-35.19167 19.60232,-60.51762 2.4081,-10.23701 6.67763,-27.38775 9.48785,-38.11275 2.81022,-10.725 7.79935,-29.85 11.08697,-42.5 6.70119,-25.78462 13.7123,-49.13052 20.47916,-68.19238 2.50065,-7.04419 7.72225,-22.03262 11.60355,-33.30762 3.8813,-11.275 11.88718,-32.65 17.79086,-47.5 18.25099,-45.90822 28.0258,-71.30514 28.65513,-74.45178 0.89217,-4.46088 -1.50739,-4.76691 -9.18953,-1.17201 -7.11009,3.32722 -76.04068,48.28138 -90.06762,58.73901 -8.80912,6.56755 -10.38321,7.33644 -10.38321,5.07187 0,-3.03637 7.1926,-8.23512 53.32073,-38.53974 44.5162,-29.24563 54.22991,-34.52857 58.89591,-32.03141 3.25065,1.7397 1.7666,8.69981 -6.11599,28.68378 -3.83999,9.73515 -12.83486,32.55028 -19.9886,50.70028 -13.22038,33.54189 -34.76287,94.4101 -41.99224,118.64889 -9.73288,32.63263 -34.82983,132.47442 -33.60708,133.69717 0.32076,0.32076 1.2194,0.14912 1.99699,-0.38143 1.47258,-1.00475 15.18736,-21.94407 28.46834,-43.46463 7.57796,-12.27936 11.6656,-18.85363 29.39445,-47.2759 4.87988,-7.82325 12.46115,-20.5241 16.84726,-28.2241 9.45802,-16.60393 9.64328,-16.85855 11.279,-15.50102 0.97594,0.80996 0.95151,2.22154 -0.11706,6.76233 -2.16937,9.21855 -1.79948,19.98645 0.86829,25.2768 1.96751,3.9017 2.70353,4.49983 5.86234,4.76405 3.13171,0.26195 4.33783,-0.36089 9.06493,-4.6812 2.99892,-2.74084 9.85415,-10.60778 15.23385,-17.48208 5.3797,-6.8743 10.47638,-12.76547 11.32595,-13.09148 3.33658,-1.28037 5.40383,0.72131 9.17498,8.88395 4.30508,9.31832 6.75122,11.56865 12.57527,11.56865 4.89158,0 9.61059,-2.42333 19.51268,-10.02026 18.05091,-13.84874 23.72646,-13.4335 35.09246,2.56746 3.14391,4.42597 7.61693,9.76441 9.94005,11.86321 3.95753,3.57539 4.54678,3.78832 9.34567,3.3772 4.16506,-0.35683 7.34765,-1.78275 17.03732,-7.63338 6.55353,-3.95702 14.32081,-7.89383 17.26062,-8.74845 7.89001,-2.29369 10.97824,-0.92341 21.83723,9.68946 4.95735,4.84498 10.65557,9.49522 12.66271,10.33386 2.10916,0.88126 8.43422,1.77762 14.98665,2.12383 14.79221,0.78158 23.18938,3.20358 28.94107,8.34747 3.42474,3.06285 4.13333,4.20207 3.20656,5.1553 -0.93352,0.96017 -1.87733,0.645 -4.38353,-1.46383 -6.62426,-5.57395 -10.60206,-6.84774 -23.92681,-7.66198 -19.76455,-1.20776 -22.00941,-2.14342 -34.08734,-14.20777 -5.51365,-5.50745 -9.42314,-8.59467 -11.34497,-8.95884 -4.89801,-0.92812 -11.78241,1.56 -22.44318,8.11128 -12.14444,7.46303 -15.90308,9.12544 -20.63223,9.12544 -6.65825,0 -10.75218,-3.16483 -19.86243,-15.35477 -4.67963,-6.26156 -9.24755,-11.66828 -10.15092,-12.01494 -5.56015,-2.13363 -10.11847,-0.27205 -22.47768,9.1797 -10.98295,8.39925 -15.80661,10.55926 -22.20718,9.94424 -6.37719,-0.61276 -10.88627,-4.83506 -14.07146,-13.17647 -1.35491,-3.54827 -2.99738,-6.19958 -3.95483,-6.38397 -1.07863,-0.20772 -4.86529,3.71579 -11.09451,11.49543 -12.43297,15.52748 -14.44735,17.7206 -19.06282,20.75425 -9.6611,6.35006 -18.54105,-0.53591 -19.81615,-15.36646 -0.40842,-4.75025 -2.25008,-4.89234 -5.07314,-0.39141 -1.31584,2.09792 -7.25186,11.6894 -13.19114,21.3144 -5.93929,9.625 -13.74819,22.225 -17.35313,28 -3.60493,5.775 -10.44976,16.8 -15.21073,24.5 -4.76096,7.7 -12.08792,19.24609 -16.28212,25.65799 -11.74912,17.96146 -26.17963,44.353 -29.99665,54.85999 -9.49954,26.14907 -10.94176,28.7903 -13.82418,25.3172 z M 534.34149,436.2751 c -4.35795,-4.35795 -3.57265,-12.03001 3.87022,-37.81042 6.09273,-21.10387 14.074,-50.58645 14.074,-51.98898 0,-3.72517 -3.5552,-0.008 -9.55718,9.99362 -13.79141,22.98095 -30.19164,46.72649 -41.26728,59.75 -16.78218,19.73366 -22.65453,23.0576 -31.34963,17.74488 -4.73456,-2.89282 -7.13968,-6.03945 -11.03109,-14.43199 -2.94165,-6.3442 -4.31624,-8.25956 -5.95491,-8.29758 -0.36305,-0.008 -5.08805,4.06183 -10.5,9.04501 -15.99869,14.73115 -23.72762,18.88134 -28.87811,15.50661 -4.63433,-3.03653 -5.79929,-7.64716 -5.0949,-20.16437 0.34347,-6.10359 1.29314,-14.87859 2.11037,-19.5 1.73861,-9.83173 1.90013,-13.90256 0.55163,-13.90256 -0.53411,0 -4.23955,4.3875 -8.2343,9.75 -9.58865,12.87166 -25.86708,29.15455 -32.20461,32.21345 -2.854,1.37752 -6.73158,2.36988 -9.26014,2.36988 -8.526,0 -15.76757,-9.30158 -18.94423,-24.33333 -2.30035,-10.88511 -1.34194,-35.62794 1.95611,-50.5 3.34134,-15.06726 10.83961,-37.67914 17.07779,-51.5 5.64053,-12.49675 24.82017,-47.02123 35.09975,-63.18159 6.12454,-9.6283 7.38993,-13.32685 3.61944,-10.57913 -3.61586,2.63503 -19.14902,20.05097 -28.02227,31.41886 -9.20227,11.78941 -25.48575,37.75655 -31.11263,49.61509 -15.51348,32.69433 -24.29992,58.31905 -36.93834,107.72677 -3.59411,14.05056 -5.1331,18.57776 -6.39887,18.82332 -1.15778,0.22462 -1.6666,-0.36416 -1.6666,-1.92852 0,-2.66052 7.66706,-31.72089 12.50428,-47.3948 1.86712,-6.05 7.0198,-25.625 11.4504,-43.5 11.00824,-44.41214 10.38973,-42.08557 17.1469,-64.5 12.18815,-40.4297 18.22201,-58.34196 24.59053,-73 3.5844,-8.25 6.81233,-17.01976 7.17318,-19.48836 0.45862,-3.13745 1.17959,-4.58918 2.3954,-4.82333 3.57293,-0.68808 1.98731,6.44291 -5.15151,23.1678 -6.88848,16.13841 -13.63988,35.52674 -21.15315,60.74651 -8.06735,27.07971 -12.72329,43.48997 -13.3767,47.14738 -1.08726,6.08584 1.74406,4.65303 4.94013,-2.5 5.11699,-11.45218 21.66376,-38.09317 31.66861,-50.98777 18.07986,-23.30198 66.82218,-74.15198 68.99536,-71.9788 1.27058,1.27058 1.65573,0.66142 -7.72409,12.21657 -19.98781,24.62329 -51.51158,75.48655 -64.50255,104.07416 -5.05546,11.12493 -11.65577,30.11478 -15.01708,43.20587 -6.8879,26.82591 -6.51733,58.71161 0.8216,70.69422 3.75011,6.12296 8.95362,8.72734 14.26041,7.13739 8.68174,-2.60112 25.35998,-18.80631 37.16575,-36.11164 5.92001,-8.67776 10.66194,-14 12.47351,-14 3.06279,0 3.44695,3.81448 1.43528,14.25124 -2.23996,11.62112 -4.09626,28.22175 -4.09626,36.63221 0,6.49335 1.93459,10.11655 5.40167,10.11655 3.41275,0 12.87178,-6.67584 23.95146,-16.90406 13.3057,-12.28319 14.32645,-12.18394 21.03306,2.04505 6.316,13.40024 13.09556,16.91464 21.24357,11.01225 8.43633,-6.11125 28.8031,-32.46593 46.09974,-59.65324 22.81475,-35.86084 30.02707,-50.81678 39.32206,-81.5408 10.54474,-34.85502 21.70614,-69.35429 24.43198,-75.5179 2.22491,-5.03092 4.55338,-6.80862 5.95261,-4.5446 0.89049,1.44083 -2.09513,16.58212 -5.93588,30.1033 -4.65701,16.39481 -9.90675,30.93814 -20.18937,55.93055 -6.90074,16.77257 -10.04347,26.37104 -17.36132,53.02463 -4.91443,17.89965 -11.36779,41.32541 -14.34081,52.05723 -6.04286,21.81316 -7.39554,29.64897 -5.67366,32.86634 3.22498,6.02593 10.293,0.79713 39.13607,-28.95216 23.00682,-23.72968 27.14791,-27.17467 28.4607,-23.67659 0.25801,0.6875 0.62488,6.2 0.81526,12.25 0.37686,11.97612 1.85293,17.01006 6.37085,21.72688 8.30146,8.66693 21.11318,5.50029 48.28731,-11.93506 21.7423,-13.95019 29.0974,-17.3776 32.9115,-15.33637 1.108,0.59303 3.8944,4.33315 6.192,8.31139 6.1264,10.60799 10.6075,15.72013 15.7888,18.01207 4.1824,1.85007 5.6172,1.94194 18.0727,1.15719 23.0159,-1.45008 28.5063,-1.16211 38.0297,1.99461 4.675,1.54963 14.2311,5.68666 21.2357,9.1934 7.0047,3.50674 13.3312,6.37589 14.0589,6.37589 2.408,0 5.3087,2.76036 4.1443,3.9438 -1.404,1.42689 -9.5194,-1.39779 -19.4389,-6.76599 -19.3458,-10.46949 -30.8449,-13.16264 -47.5,-11.12484 -22.2966,2.72805 -29.1373,1.45309 -37.5175,-6.99243 -3.0347,-3.0583 -6.9513,-8.28444 -8.7037,-11.61365 -4.614,-8.76565 -6.0667,-9.85617 -10.9008,-8.18297 -2.1329,0.73824 -9.503,4.88756 -16.378,9.22071 -28.08694,17.70253 -31.71837,19.57236 -41.90317,21.5761 -4.90477,0.96496 -7.09193,0.96292 -10.40361,-0.01 -10.07809,-2.95961 -16.69322,-14.86423 -16.69322,-30.04093 0,-2.69047 -0.50407,-5.2033 -1.12015,-5.58405 -0.66401,-0.41039 -10.94609,9.31252 -25.25,23.87682 -23.97978,24.4163 -29.21456,28.69743 -35.09001,28.69743 -1.39691,0 -3.41474,-0.8749 -4.48406,-1.94422 z m 82.94422,-102.47245 c 0,-0.87083 0.7125,-1.58333 1.58333,-1.58333 0.87084,0 1.40521,0.53437 1.1875,1.1875 -0.61807,1.85422 -2.77083,2.16176 -2.77083,0.39583 z"
           id="path5774"
           inkscape:connector-curvature="0" />
        <path
           style="fill:#ffffff;stroke:#ffffff"
           d="m -203.71429,583.75634 c 0,-3.10369 2.61646,-9.75517 9.40307,-23.90424 6.76582,-14.10569 14.59174,-37.96547 19.67683,-59.99099 5.8614,-25.38798 26.44087,-103.96315 31.59706,-120.64179 2.46547,-7.975 9.39676,-28.56359 15.40286,-45.75243 6.0061,-17.18884 10.92018,-31.49282 10.92018,-31.78663 0,-0.2938 6.00361,-15.70521 13.34135,-34.24757 25.42335,-64.2444 27.73551,-70.36947 27.94657,-74.03239 0.30196,-5.24037 -2.19273,-5.22557 -12.39761,0.0736 -9.27911,4.81841 -79.70436,51.08298 -89.72419,58.94265 -3.48363,2.73261 -6.63363,4.66223 -7,4.28804 -1.46732,-1.49863 12.28143,-11.26428 58.40583,-41.48524 32.76252,-21.46619 34.15172,-22.31326 43.19281,-26.33716 11.42285,-5.08394 12.85558,-1.57466 6.36915,15.60037 -7.5564,20.00815 -20.99594,54.47162 -27.38987,70.23679 -7.38476,18.20818 -8.68539,21.76522 -23.03595,63 -11.80589,33.92291 -17.27063,51.76429 -25.11628,82 -2.99703,11.55 -8.14744,31.35 -11.44537,44 -8.11766,31.13727 -13.39329,54.29157 -12.64575,55.50112 0.33954,0.54939 1.19818,0.99888 1.90809,0.99888 2.21136,0 62.59464,-96.05299 81.42585,-129.52585 2.40654,-4.27767 4.71281,-7.31996 5.18483,-6.83952 0.46784,0.47619 0.21194,3.56374 -0.56901,6.86537 -3.84045,16.23631 -0.0961,30.54517 7.97386,30.47218 5.20109,-0.047 11.71561,-6.08247 24.79573,-22.97218 12.43604,-16.05806 13.56593,-16.25882 19.2838,-3.42649 2.78198,6.24345 4.55304,8.92167 6.59961,9.97999 6.50752,3.36516 14.19196,0.82703 25.89655,-8.5535 15.81795,-12.67714 23.43802,-13.10652 31.58238,-1.7796 7.54651,10.49545 13.60722,17.54496 16.03507,18.65116 6.11145,2.78457 9.94128,1.58556 26.38255,-8.25956 5.225,-3.12876 11.86728,-6.37973 14.76062,-7.22437 7.74219,-2.26016 10.94903,-0.84592 21.23938,9.36669 11.83121,11.74183 11.61371,11.65403 32.54077,13.13629 13.07559,0.92614 20.64027,3.47984 25.43888,8.58773 3.50628,3.73226 1.72314,4.17895 -2.66337,0.66719 -6.30329,-5.04629 -10.75038,-6.35762 -24.44544,-7.20834 -18.22777,-1.13227 -19.50417,-1.66624 -31.72176,-13.27049 l -10.40573,-9.88335 -6.18097,0.39358 c -5.63355,0.35871 -7.41074,1.12112 -20.06625,8.60832 -12.71255,7.52092 -14.33525,8.21472 -19.21304,8.21472 -4.86669,0 -5.72145,-0.36287 -9.87664,-4.19299 -2.50187,-2.30615 -7.24156,-7.92297 -10.53265,-12.48182 -6.88538,-9.53773 -9.03759,-11.32519 -13.63614,-11.32519 -4.36521,0 -9.20404,2.56773 -17.73766,9.41248 -18.20617,14.60304 -29.44305,14.23478 -35.54837,-1.16499 -4.3733,-11.031 -5.43301,-10.9281 -14.97521,1.4541 -9.34862,12.13101 -18.48058,21.99064 -22.10232,23.86351 -8.72834,4.51361 -15.2619,-0.9175 -16.69124,-13.87481 -0.58567,-5.30924 -0.98811,-6.23381 -2.82757,-6.49604 -1.69621,-0.24182 -2.837,0.90833 -5.45524,5.5 -1.82079,3.19316 -5.98764,10.08075 -9.25966,15.30575 -3.27203,5.225 -9.40988,15.125 -13.63967,22 -13.73625,22.32657 -32.50806,52.26051 -39.34008,62.73254 -13.10686,20.09001 -24.42779,41.57262 -30.57461,58.01843 -3.23751,8.66196 -6.45354,16.98653 -7.14672,18.49903 -1.5714,3.42872 -3.93931,3.60124 -3.93931,0.28702 z M 535.00407,435.79482 c -4.48197,-4.48197 -3.51675,-10.8054 7.67195,-50.26084 9.81562,-34.61348 11.0703,-39.67195 10.32304,-41.61927 -1.1269,-2.93665 -3.51454,-0.73868 -8.30893,7.64888 -7.17125,12.54577 -32.4281,50.14587 -40.07212,59.65573 -11.42644,14.21553 -20.31957,22.71938 -24.59895,23.5222 -8.23778,1.54542 -14.21139,-3.02564 -19.95818,-15.2722 -2.12926,-4.5375 -4.03792,-8.25 -4.24148,-8.25 -0.20357,0 -1.01643,-0.24801 -1.80637,-0.55114 -0.88764,-0.34062 -5.21609,2.92863 -11.33178,8.55882 -17.52265,16.13158 -25.38049,19.87817 -30.39554,14.49247 -2.4253,-2.60455 -2.49489,-3.07794 -2.32906,-15.84246 0.10366,-7.9794 0.96629,-17.68358 2.19188,-24.65769 2.94354,-16.75 1.11321,-17.31549 -9.15571,-2.8287 -7.69846,10.86053 -23.06424,27.00954 -30.00912,31.53876 -9.6869,6.31749 -17.26633,4.97466 -23.4567,-4.15577 -5.78824,-8.5373 -6.74722,-13.63119 -6.69353,-35.55429 0.043,-17.57975 0.31389,-20.6352 2.75035,-31.02785 3.58142,-15.27648 10.78335,-36.98481 16.59216,-50.01272 5.37027,-12.04435 26.32515,-49.69577 35.76112,-64.25504 6.69994,-10.3377 7.5315,-12.70439 4.46379,-12.70439 -2.93674,0 -27.19808,27.44272 -39.3412,44.5 -1.95773,2.75 -7.61206,11.87559 -12.56517,20.27908 -9.78359,16.59891 -25.79249,52.57875 -31.10188,69.90114 -6.66964,21.76037 -12.31461,41.66123 -16.25902,57.31978 -2.286,9.075 -4.53696,16.9275 -5.00214,17.45 -2.84391,3.19438 1.74464,-16.24338 11.7914,-49.95 2.45904,-8.25 8.71473,-32.1 13.90153,-53 5.1868,-20.9 11.5032,-44.75 14.03645,-53 13.9274,-45.35729 18.39887,-58.58567 25.07244,-74.17433 4.04383,-9.44587 7.35241,-18.53182 7.35241,-20.19098 0,-3.28648 1.462,-4.97908 2.3352,-2.70354 0.83251,2.16947 -0.87541,7.31005 -7.76249,23.3639 -6.7188,15.6616 -11.43061,29.45851 -22.09749,64.70495 -8.03143,26.53814 -13.31318,46.55054 -12.73432,48.25 0.81639,2.39681 3.04346,1.22319 4.74401,-2.5 13.34227,-29.21156 31.87533,-56.33567 57.15307,-83.64653 17.97467,-19.42039 44.34515,-45.95368 45.01047,-45.28835 0.6704,0.6704 -0.41435,2.2138 -7.9772,11.35007 -8.85292,10.69473 -30.44227,42.09699 -38.38696,55.83481 -22.62424,39.12143 -28.85537,52.09103 -36.63578,76.25446 -7.3039,22.68351 -9.1468,33.61186 -9.14773,54.24554 -6.8e-4,15.29152 0.27865,18.38339 2.21345,24.5 3.82438,12.09027 10.57139,17.64049 18.71191,15.39278 8.56913,-2.36605 23.29416,-16.71547 37.9551,-36.98691 8.68766,-12.01229 10.83819,-14.08644 12.68759,-12.23704 0.83184,0.83184 0.42212,5.24161 -1.57675,16.97043 -3.47746,20.40477 -3.94302,38.06746 -1.08709,41.24273 1.04774,1.16491 2.89047,2.11801 4.09496,2.11801 3.37112,0 12.98102,-6.80765 23.8968,-16.9285 12.36114,-11.46093 13.59533,-11.60034 18.3393,-2.0715 5.27448,10.59442 7.58791,14.00845 10.88198,16.05902 6.12045,3.80999 11.03818,2.19551 18.92329,-6.21247 6.71374,-7.15893 18.13128,-21.06628 22.86123,-27.84655 26.37889,-37.81347 47.18774,-74.61455 52.58603,-93 1.21118,-4.125 5.27582,-17.4 9.03255,-29.5 16.72676,-53.87506 20.95414,-65.86187 23.39529,-66.33766 1.5209,-0.29643 1.65194,0.253 1.07326,4.5 -1.18311,8.68307 -8.32035,34.90241 -13.0698,48.01312 -5.07269,14.00302 -16.6506,42.93623 -18.99725,47.47416 -0.80912,1.56467 -3.21646,9.2586 -5.34962,17.09762 -10.05454,36.94867 -17.36642,63.43844 -20.99231,76.05179 -6.87442,23.91395 -7.47653,33.70097 -2.07333,33.70097 5.75628,0 9.97577,-3.5249 36.20984,-30.24916 20.67296,-21.05924 26.98674,-26.94689 27.90861,-26.02502 0.74877,0.74877 1.239,5.01494 1.3195,11.48279 0.27093,21.76609 8.14634,30.90258 23.95612,27.79219 7.7257,-1.51993 15.21195,-5.345 35.81336,-18.29864 18.8448,-11.84918 24.6579,-14.53684 28.0743,-12.98021 1.2266,0.55889 3.9387,4.13297 6.0269,7.94242 5.0419,9.19776 11.1546,16.19045 16.1277,18.4493 4.8608,2.20782 14.1189,2.4251 29.6668,0.69626 8.4314,-0.93753 12.141,-0.92503 17.4811,0.0589 8.5296,1.57164 20.6487,6.20133 30.5993,11.6894 4.2301,2.33299 9.9676,4.99795 12.75,5.92214 2.7825,0.9242 5.0591,2.14297 5.0591,2.70839 0,1.79523 -5.0908,-0.0357 -17,-6.11421 -13.3646,-6.82132 -26.3173,-11.59547 -34.0966,-12.56742 -3.3026,-0.41263 -10.7368,-0.0425 -18.7045,0.93115 -25.2764,3.08888 -32.6825,-0.637 -44.4486,-22.36135 -2.464,-4.54946 -3.0988,-5.07694 -6.1092,-5.07694 -4.0322,0 -11.0553,3.6391 -26.5577,13.7612 -22.39977,14.62557 -33.8326,19.24151 -43.95267,17.74563 -3.75735,-0.55538 -5.48301,-1.5649 -9.14961,-5.35255 -5.33329,-5.50937 -7.02268,-10.26074 -7.87337,-22.14358 -0.47671,-6.65887 -0.95162,-8.55488 -2.20256,-8.79344 -0.98739,-0.1883 -9.89764,8.28994 -23.39439,22.26013 -11.98977,12.41034 -23.99209,24.17371 -26.67184,26.14082 -5.73062,4.20667 -11.63472,5.44317 -14.1206,2.95729 z"
           id="path5772"
           inkscape:connector-curvature="0" />
      </g>
    </g>
  </g>
</svg>
